<?xml version="1.0" encoding="utf-8"?>
<!-- Generator: Adobe Illustrator 28.0.0, SVG Export Plug-In . SVG Version: 6.00 Build 0)  -->
<svg version="1.1" id="Layer_1" xmlns="http://www.w3.org/2000/svg" xmlns:xlink="http://www.w3.org/1999/xlink" x="0px" y="0px"
	 viewBox="0 0 800 800" style="enable-background:new 0 0 800 800;" xml:space="preserve">
<style type="text/css">
	.st0{fill:#5BC9F4;}
</style>
<path id="XMLID_517_" class="st0" d="M724.1,312.4c-5.9-13.1-18.9-21.5-33.2-21.5H470.8l61.4-245.7c4.1-16.2-3.5-33.2-18.3-41
	c-14.8-7.8-33-4.5-44.2,8L81.9,448.6c-9.5,10.7-11.9,26-6,39.1c5.9,13.1,18.9,21.5,33.2,21.5h220.1l-61.4,245.7
	c-4.1,16.2,3.5,33.2,18.3,41c5.4,2.8,11.2,4.2,17,4.2c10.1,0,20.1-4.2,27.2-12.2l387.9-436.4C727.6,340.7,729.9,325.4,724.1,312.4z
	 M374.2,628.8L411,481.5c2.7-10.9,0.3-22.4-6.6-31.2c-6.9-8.8-17.5-14-28.7-14H190.1l235.7-265.2L389,318.5
	c-2.7,10.9-0.3,22.4,6.6,31.2c6.9,8.8,17.5,14,28.7,14h185.7L374.2,628.8z"/>
</svg>
