<?xml version="1.0" encoding="utf-8"?>
<!-- Generator: Adobe Illustrator 28.0.0, SVG Export Plug-In . SVG Version: 6.00 Build 0)  -->
<svg version="1.1" id="Capa_1" xmlns="http://www.w3.org/2000/svg" xmlns:xlink="http://www.w3.org/1999/xlink" x="0px" y="0px"
	 viewBox="0 0 754.8 800" style="enable-background:new 0 0 754.8 800;" xml:space="preserve">
<style type="text/css">
	.st0{fill:#5BC9F4;}
	.st1{fill:#FFFFFF;}
</style>
<path class="st0" d="M387.1,158.7c-117.5,0-213,95.6-213,213c0,48.1,15.8,93.6,45.6,131.4c5.7,7.2,11.9,14.4,17.8,21.3
	c17.8,20.6,34.5,40.1,40.5,62c0.1,0.5,1.2,5.1,1.1,20.7l0,2.3c-0.2,12.7-0.4,30.1,12.5,43.2c8.8,8.9,21.2,13.3,37.8,13.3h115.2
	c17.9,0,30.8-4.4,39.4-13.4c11.6-12.2,10.8-28,10.3-38.4c-0.1-1.8-0.2-3.7-0.2-5.6c-0.2-15.7,1-20.1,1-20.3
	c6.1-21.9,25.7-45,43.1-65.4c5.8-6.8,11.2-13.2,16.3-19.7c29.8-37.8,45.6-83.3,45.6-131.4C600.1,254.3,504.6,158.7,387.1,158.7
	L387.1,158.7z"/>
<path class="st0" d="M440.1,685.2H334.2c-22.9,0-41.5,18.6-41.5,41.5v31.8c0,22.9,18.6,41.5,41.5,41.5h106
	c22.9,0,41.5-18.6,41.5-41.5v-31.8C481.6,703.9,463,685.2,440.1,685.2L440.1,685.2z M438.7,757.1H335.6v-28.9h103.1V757.1z"/>
<path class="st1" d="M387.1,130.9c11.9,0,21.5-9.6,21.5-21.4V21.5C408.6,9.6,399,0,387.1,0s-21.5,9.6-21.5,21.5v88
	C365.7,121.3,375.3,130.9,387.1,130.9L387.1,130.9z"/>
<path class="st1" d="M669.4,99c-8.2-8.6-21.8-8.9-30.3-0.7l-65.1,62.2c-8.6,8.2-8.9,21.8-0.7,30.3c4.2,4.4,9.9,6.6,15.5,6.6
	c5.3,0,10.7-2,14.8-5.9l65.1-62.2C677.2,121.1,677.5,107.5,669.4,99z"/>
<path class="st1" d="M733.3,313.5L733.3,313.5l-83.9,0.1c-11.8,0-21.4,9.6-21.4,21.5c0,11.8,9.6,21.4,21.5,21.4h0l83.8-0.1
	c11.8,0,21.4-9.6,21.4-21.5C754.7,323.1,745.1,313.5,733.3,313.5L733.3,313.5z"/>
<path class="st1" d="M190.2,185c8.2-8.6,7.9-22.1-0.7-30.3l-65.1-62.2c-8.6-8.2-22.2-7.9-30.3,0.7s-7.9,22.2,0.7,30.3l65.1,62.2
	c4.1,4,9.5,5.9,14.8,5.9C180.3,191.7,185.9,189.4,190.2,185L190.2,185z"/>
<path class="st1" d="M105.3,313.6l-83.8-0.1h0C9.6,313.5,0,323.1,0,334.9c0,11.9,9.6,21.5,21.4,21.5l83.8,0.1h0
	c11.8,0,21.4-9.6,21.4-21.4C126.8,323.3,117.2,313.6,105.3,313.6L105.3,313.6z"/>
</svg>
