<?xml version="1.0" encoding="utf-8"?>
<!-- Generator: Adobe Illustrator 28.0.0, SVG Export Plug-In . SVG Version: 6.00 Build 0)  -->
<svg version="1.1" id="Layer_1" xmlns="http://www.w3.org/2000/svg" xmlns:xlink="http://www.w3.org/1999/xlink" x="0px" y="0px"
	 viewBox="0 0 800 800" style="enable-background:new 0 0 800 800;" xml:space="preserve">
<style type="text/css">
	.st0{fill:#5BC9F4;}
</style>
<g>
	<path class="st0" d="M788.3,682.6H625.9c11.2-14.1,15.6-32.2,12.3-49.9L604.9,458c-4.2-22-20-40-41.2-47.1l-84.8-28.3
		c-1.5-0.5-3-0.7-4.5-0.6v-22.5c16.2-18.2,25-41.3,25-65.9v-27.8c14.5-4.9,25-18.7,25-34.9v-62.6c0-41-33.4-74.4-74.4-74.4H349.9
		c-16.6,0-30.6,11-35.2,26.1c-22.3,4.7-39.2,24.6-39.2,48.3v62.6c0,16.2,10.5,29.9,25,34.9v24.1c0,25.9,9.5,49.8,25,68V382
		c-1.5-0.1-3,0.1-4.5,0.6l-84.8,28.3c-21.2,7.1-37,25.1-41.2,47.1l-33.3,174.7c-3.4,17.7,1.1,35.8,12.3,49.9H11.7
		c-6.5,0-11.7,5.3-11.7,11.7s5.3,11.7,11.7,11.7h210.8h2.1h25h300.6h25h2.1h210.8c6.5,0,11.7-5.3,11.7-11.7S794.7,682.6,788.3,682.6
		L788.3,682.6z M337.4,405.5c6.5,0,11.7-5.3,11.7-11.7v-15.5c14.1,8.8,30.4,14.2,47.8,14.7c1,0,2.1,0,3.1,0c18.2,0,35.6-4.9,50.8-14
		v14.8c0,6.5,5.3,11.7,11.7,11.7c0.2,0,0.3,0,0.5,0c-3.1,29-30.2,51.7-63.1,51.7s-60.1-22.7-63.1-51.7
		C337.1,405.5,337.2,405.5,337.4,405.5z M299,230.9v-62.6c0-14.2,11.6-25.8,25.8-25.8c6.5,0,11.7-5.3,11.7-11.7
		c0-7.3,6-13.3,13.3-13.3h100.2c28.1,0,50.9,22.8,50.9,50.9v62.6c0,2.3-0.6,4.4-1.6,6.2v-18.8c0-20.3-16.5-36.8-36.8-36.8H337.4
		c-20.3,0-36.8,16.5-36.8,36.8v18.8C299.6,235.3,299,233.2,299,230.9z M324.1,218.4c0-7.3,6-13.3,13.3-13.3h125.2
		c7.3,0,13.3,6,13.3,13.3v75.1c0,20.7-8.2,40.1-23.1,54.5c-14.9,14.4-34.5,22-55.2,21.4c-40.6-1.2-73.6-36.9-73.6-79.6L324.1,218.4
		L324.1,218.4z M249.7,682.6c-0.4,0-0.8-0.4-0.8-0.8V519c0-0.4,0.4-0.8,0.8-0.8h300.6c0.4,0,0.8,0.4,0.8,0.8v162.8
		c0,0.4-0.4,0.8-0.8,0.8H249.7z M575.3,682.6h-0.8c0-0.3,0-0.5,0-0.8V519c0-13.4-10.9-24.3-24.3-24.3H249.7
		c-13.4,0-24.3,10.9-24.3,24.3v162.8c0,0.3,0,0.5,0,0.8h-0.8h-2.1c-11.5,0-22.2-5.1-29.5-13.9c-7.3-8.8-10.3-20.4-8.1-31.6
		l33.3-174.7c2.6-13.6,12.4-24.8,25.5-29.2l70.1-23.4c5.2,39.8,41.9,70.8,86.2,70.8s81-31,86.2-70.8l70.1,23.4
		c13.2,4.4,23,15.6,25.5,29.2l33.3,174.7c2.1,11.3-0.8,22.8-8.1,31.6c-7.3,8.8-18.1,13.9-29.5,13.9H575.3L575.3,682.6z"/>
	<path class="st0" d="M400,569.9c-20.3,0-36.8,16.5-36.8,36.8s16.5,36.8,36.8,36.8s36.8-16.5,36.8-36.8S420.3,569.9,400,569.9z
		 M400,620c-7.3,0-13.3-6-13.3-13.3s6-13.3,13.3-13.3c7.3,0,13.3,6,13.3,13.3S407.3,620,400,620z"/>
</g>
</svg>
