<?xml version="1.0" encoding="utf-8"?>
<!-- Generator: Adobe Illustrator 28.0.0, SVG Export Plug-In . SVG Version: 6.00 Build 0)  -->
<svg version="1.1" id="Capa_1" xmlns="http://www.w3.org/2000/svg" xmlns:xlink="http://www.w3.org/1999/xlink" x="0px" y="0px"
	 viewBox="0 0 800 800" style="enable-background:new 0 0 800 800;" xml:space="preserve">
<style type="text/css">
	.st0{fill:#5BC9F4;}
</style>
<g>
	<g>
		<g>
			<path class="st0" d="M726.8,482.9l-0.4-76.6l73.6-41.2L398.9,153.6L0,369.3l159.9,91.8l0.3,54.6l0,4.4l1.5-0.7
				c-1.7,2.3-2.8,4.6-2.7,7c0.1,26.8,108.5,48.1,242.2,47.3c133.6-0.7,241.8-23.2,241.7-50c0-2.4-1.2-4.6-2.9-7l1.5,0.7v-4.4
				l-0.3-54.8l69.3-43.1l0.4,67.8c-7.6,3.3-12.9,10.8-12.9,19.6c0.1,11.5,9.4,20.8,21,20.7c11.7-0.1,20.9-9.5,20.9-21
				C739.8,493.5,734.5,486.1,726.8,482.9z M401.1,555.3c-118.6,0.7-214.8-12.4-214.9-29c-0.1-16.6,96-30.6,214.6-31.2
				c118.7-0.7,214.8,12.3,214.9,28.9C615.7,540.5,519.7,554.6,401.1,555.3z M635.7,413.9c-16.1-16.9-73.6-61.5-235.7-60.5
				c-162.3,0.9-219.1,46-235,63.1l-0.1-16.2c0,0,46-70,235-71c188.8-1,235.7,68.5,235.7,68.5L635.7,413.9z M702.1,527.8L694,646.4
				c25.3-39.7,46.4-24.9,46.4-24.9l-0.5-93.8C712.7,538.3,702.1,527.8,702.1,527.8z"/>
		</g>
	</g>
</g>
</svg>
