<?xml version="1.0" encoding="utf-8"?>
<!-- Generator: Adobe Illustrator 28.0.0, SVG Export Plug-In . SVG Version: 6.00 Build 0)  -->
<svg version="1.1" id="Capa_1" xmlns="http://www.w3.org/2000/svg" xmlns:xlink="http://www.w3.org/1999/xlink" x="0px" y="0px"
	 viewBox="0 0 800 800" style="enable-background:new 0 0 800 800;" xml:space="preserve">
<style type="text/css">
	.st0{fill:#5BC9F4;}
</style>
<g>
	<g>
		<path class="st0" d="M469.6,300.2l-13.7,44.9c12.3,3.9,21.2,16,21.2,30.2c0,7.1-2.3,13.7-6,19l35.8,29.2
			c9.9-13.3,15.7-30,15.7-48.2C522.5,339.7,500.1,309.8,469.6,300.2z"/>
		<path class="st0" d="M439.9,408.8c-16.3-0.1-29.4-14.3-29.4-31.5c0-17.2,13.1-31.3,29.4-31.5c3.1,0,6,0.4,8.8,1.3l13.7-44.8
			c-7.1-2.2-14.7-3.4-22.4-3.2c-40.2,0.8-72.3,35.8-72.3,78.1c0,42.3,32.1,77.4,72.3,78.2c24,0.5,45.6-11.3,59.5-30l-35.6-29.2
			C458.3,403.9,449.7,408.8,439.9,408.8z"/>
		<path class="st0" d="M752.8,323.4c47.2-18.3,47.2-20.1,47.2-24.8v-37c0-4.7,0-6.7-47.2-23.6l-1.6-0.6l-6.7-15.8l0.7-1.6
			c20.1-45.5,18.7-46.9,15.4-50.2l-26.7-26.1c-1.1-1.1-3-1.8-4.7-1.8c-1.5,0-6,0-45.6,17.9l-1.6,0.7l-16.3-6.6l-0.6-1.6
			c-18.6-46-20.5-46-25.1-46h-37.8c-4.7,0-6.7,0-23.9,46.1l-0.6,1.7l-16.2,6.6l-1.5-0.6c-26.7-11.3-42.3-17-46.4-17
			c-1.6,0-3.6,0.7-4.7,1.8l-26.8,26.2c-3.4,3.3-4.8,4.7,16.3,49.3l0.7,1.6l-6.6,15.8l-1.6,0.6c-5.4,2.1-10,3.9-14.2,5.6
			c-1.6,0.6-10.9,6.7-16.8,10.4l-123.1-6.7l-42.3,203h0l-0.8,0.1c-10.2-17.4-29.3-27.3-55.9-27.3h-11.6
			c-15.6,15.2-42.9,25.4-74.1,25.4s-58.5-10.2-74.1-25.4H65.9c-41,0-64.5,23.2-64.5,61.8c0,38.7-1.2,144.3-1.2,165.4
			s-2.5,43,15.7,43c6.7,0,28.1,0,55.8,0c26.4,0,51.8,0,75.1,0c3.2,0,6.8,0,9.9,0c29.9,0,54.7,0,69,0c2.5,0,4.3,0,6.2,0
			c0.8,0,2,0,2.6,0c23.2,0,41,0,47,0c2.5,0,4.8,0,6.2,0c18.2,0,15.7-21.9,15.7-43c0-3.2,0-8.7-0.1-15.4h496.3v-33.6H302.8
			c-0.1-9.5-0.2-19.6-0.3-29.9l47.3,18.1l234-37.2l23.4-97.3h34.1c4.7,0,6.7,0,23.9-46.1l0.6-1.6l16.2-6.6l1.5,0.6
			c26.7,11.3,42.3,17,46.4,17c1.6,0,3.6-0.7,4.7-1.8l26.8-26.2c3.4-3.4,4.8-4.7-16.4-49.3l-0.7-1.7l6.6-15.7L752.8,323.4z
			 M348.3,266.7L593.1,283l-53.6,226.2l-229.4-64.9L348.3,266.7z M301.9,485.3c0-6.9-1-13.2-2.5-19.1l0.9-0.1l194.1,55.4l-88.7,12.6
			L302,500.3C302,494.7,301.9,489.6,301.9,485.3z M302.1,514l26.8,8.9l-26.7,4C302.1,522.5,302.1,518.1,302.1,514z M635.4,339.3
			l14.1-58.6l-14.2-9.9l-63.4,270.3l-220.5,32.3v-0.1l-49-17.9c0-4.7-0.1-9.3-0.1-13.9l49.9,17.9l206.2-27.7l63.6-268.5l-56.7-3.1
			c0.7-2.5,1.4-5,1.6-5.4c9.9-20,30.8-33.9,55-33.9c33.8,0,61.2,26.9,61.2,60C683,309.4,662.6,333.2,635.4,339.3z"/>
		<path class="st0" d="M40.4,297.3c-0.2,1.4-0.5,2.9-0.7,4.4C32.9,365.2,77.8,422.3,139.8,429c62.1,6.7,118.2-39.5,125.1-103
			c1-9.8,0.7-19.4-0.6-28.8c7.3,0,11.8-0.1,12.8-0.3c7.9-1,14.2-1.6,14.9-10.3c0.1-11.7-0.2-9.8,0-11.5c0.2-10.1-5.7-8.9-12.3-9.6
			c-6.5-0.7-14.6,0.3-14.6,0.3s-18.8-126.7-136.1-106c-35,6.2-58.1,21-73.3,38.7c29.9-14.9,65.2-22,95.9-17.8
			c29.3,4,52.2,17.6,67.1,39.2c-9.9-7.3-20.9-13.1-33-16.8c-12.1-7.1-24.9-10.6-35.5-12c-35.4-5-77.1,6.1-108,27.4
			c-19.8,37.7-14.1,78.8-14.1,78.8S32.8,297.3,40.4,297.3z M60.5,303.9c0.2-2.2,0.6-4.4,1-6.6c47.4,0.1,133.8,0.2,181.6,0
			c1.5,8.5,1.8,17.4,0.8,26.4c-5.6,52-51.4,89.9-102,84.5C91.5,402.7,54.9,356,60.5,303.9z"/>
	</g>
</g>
</svg>
