<?xml version="1.0" encoding="utf-8"?>
<!-- Generator: Adobe Illustrator 28.0.0, SVG Export Plug-In . SVG Version: 6.00 Build 0)  -->
<svg version="1.1" id="Layer_1" xmlns="http://www.w3.org/2000/svg" xmlns:xlink="http://www.w3.org/1999/xlink" x="0px" y="0px"
	 viewBox="0 0 800 800" style="enable-background:new 0 0 800 800;" xml:space="preserve">
<style type="text/css">
	.st0{fill:#5BC9F4;}
</style>
<path class="st0" d="M125,150v339.1l-57,57.9c-11.3,11.3-18,26.9-18,42.9c0,33,27.2,60.2,60.2,60.2h579.7c33,0,60.2-27.2,60.2-60.2
	c0-16-6.6-31.6-18-43l-57-57.8V150H125z M175,200h450v275H175V200z M400,225l-37.5,225H400l37.5-225H400z M302.1,275l-43,51.7
	l-9.2,10.8l9.2,10.8l43,51.7l27.1-21.6l-34-40.9l34-40.9L302.1,275z M497.9,275l-27.1,21.6l34,40.9l-34,40.9l27.1,21.6l43-51.7
	l9.2-10.8l-9.2-10.8L497.9,275z M160.9,525h478.1l57.8,57c1.9,1.9,3.1,5.1,3.1,7.8c0,6-4.1,10.2-10.2,10.2H110.2
	c-6.1,0-10.2-4.1-10.2-10.2c0-2.7,1.2-5.8,3.1-7.8L160.9,525z"/>
</svg>
