<?xml version="1.0" encoding="utf-8"?>
<!-- Generator: Adobe Illustrator 28.0.0, SVG Export Plug-In . SVG Version: 6.00 Build 0)  -->
<svg version="1.1" id="Capa_1" xmlns="http://www.w3.org/2000/svg" xmlns:xlink="http://www.w3.org/1999/xlink" x="0px" y="0px"
	 viewBox="0 0 800 800" style="enable-background:new 0 0 800 800;" xml:space="preserve">
<style type="text/css">
	.st0{fill:#5BC9F4;}
</style>
<g>
	<path class="st0" d="M409.8,158.7c-117.4,0-213,95.6-213,213c0,48.1,15.8,93.6,45.6,131.4c5.7,7.3,11.9,14.4,17.8,21.3
		c17.8,20.6,34.5,40.1,40.5,62c0.1,0.5,1.3,5.1,1.1,20.7l0,2.3c-0.2,12.7-0.4,30.1,12.4,43.2c8.8,8.9,21.2,13.3,37.8,13.3h115.2
		c17.9,0,30.8-4.4,39.4-13.4c11.6-12.2,10.8-28,10.3-38.4c-0.1-1.8-0.2-3.7-0.2-5.6c-0.2-15.7,1-20.1,1-20.3
		c6.1-21.9,25.7-45,43.1-65.4c5.8-6.8,11.3-13.2,16.3-19.7c29.8-37.8,45.6-83.3,45.6-131.4C622.7,254.3,527.2,158.7,409.8,158.7z
		 M543.4,476.6c-4.6,5.8-9.8,12-15.3,18.4c-20.2,23.8-43.1,50.7-51.7,81.7c-1.2,4.4-2.8,12.6-2.6,32.2c0,2.4,0.1,4.8,0.3,7.2
		c0.1,1.9,0.2,4.4,0.2,6.3c-1.5,0.2-3.8,0.5-7.1,0.5H352c-3.6,0-5.8-0.4-6.9-0.7c-0.6-2.8-0.5-8.6-0.4-12.3l0-2.4
		c0.2-19.8-1.4-28-2.6-32.5c-8.5-31.3-30.2-56.5-49.4-78.7c-5.9-6.9-11.5-13.3-16.6-19.9c-23.8-30.2-36.4-66.5-36.4-104.8
		c0-93.8,76.3-170.1,170.1-170.1c93.8,0,170.1,76.3,170.1,170.1C579.8,410.1,567.2,446.4,543.4,476.6z"/>
	<path class="st0" d="M462.7,685.2h-106c-22.9,0-41.5,18.6-41.5,41.5v31.8c0,22.9,18.6,41.5,41.5,41.5h106
		c22.9,0,41.5-18.6,41.5-41.5v-31.8C504.2,703.9,485.6,685.2,462.7,685.2z M461.3,757.1H358.2v-28.9h103.1V757.1z"/>
	<path class="st0" d="M409.7,130.9c11.9,0,21.5-9.6,21.5-21.5v-88c0-11.9-9.6-21.5-21.5-21.5s-21.5,9.6-21.5,21.5v88
		C388.3,121.3,397.9,130.9,409.7,130.9z"/>
	<path class="st0" d="M692,99c-8.2-8.6-21.8-8.9-30.3-0.7l-65.1,62.2c-8.6,8.2-8.9,21.8-0.7,30.3c4.2,4.4,9.9,6.6,15.5,6.6
		c5.3,0,10.7-2,14.8-5.9l65.1-62.2C699.8,121.1,700.2,107.5,692,99z"/>
	<path class="st0" d="M755.9,313.5C755.9,313.5,755.9,313.5,755.9,313.5l-83.9,0.1c-11.9,0-21.4,9.6-21.4,21.5
		c0,11.8,9.6,21.4,21.5,21.4c0,0,0,0,0,0l83.8-0.1c11.9,0,21.4-9.6,21.4-21.5C777.4,323.1,767.8,313.5,755.9,313.5z"/>
	<path class="st0" d="M212.8,185c8.2-8.6,7.9-22.1-0.7-30.3l-65.1-62.2c-8.6-8.2-22.1-7.9-30.3,0.7c-8.2,8.6-7.9,22.1,0.7,30.3
		l65.1,62.2c4.2,4,9.5,5.9,14.8,5.9C202.9,191.7,208.6,189.4,212.8,185z"/>
	<path class="st0" d="M127.9,313.6l-83.8-0.1c0,0,0,0,0,0c-11.8,0-21.4,9.6-21.5,21.4c0,11.8,9.6,21.5,21.4,21.5l83.8,0.1
		c0,0,0,0,0,0c11.8,0,21.4-9.6,21.5-21.4C149.4,323.3,139.8,313.6,127.9,313.6z"/>
</g>
</svg>
