<?xml version="1.0" encoding="UTF-8"?>
<svg id="Layer_1" data-name="Layer 1" xmlns="http://www.w3.org/2000/svg" width="634.6" height="651.58" viewBox="0 0 634.6 651.58">
  <defs>
    <style>
      .cls-1, .cls-2 {
        stroke-width: 0px;
      }

      .cls-2 {
        fill: #fff;
      }
    </style>
  </defs>
  <path class="cls-1" d="m498.51,651.58c-.94-2.28-1.98-4.12-4.69-5.16-6.9-2.64-13.6-5.79-20.37-8.74-3.39,1.77-4.25-2.31-6.73-2.9-4.43-1.06-8.84-2.34-13.07-4.02-3.83-1.52-7.41-3.69-11.09-5.6-.92-.47-1.78-1.05-2.78-1.65-.06.67-.1,1.18-.17,1.95-6.24-2.67-10.61-6.74-11.51-13.69-.74-5.64-3.41-10.98-2.02-16.98,1.46-6.3,3.28-12.34,7.17-17.64,3.51-4.78,7.98-6.72,13.65-4.81,7.94,2.67,15.75,5.76,23.58,8.75,23.52,9,47.05,17.97,70.51,27.11,29.74,11.58,59.42,23.34,89.14,34.98,1.41.55,2.97.74,4.46,1.1v7.3h-28.55c1.95-2.24,3.89-4.48,5.84-6.72-.14-.11-.29-.22-.43-.33-2.04,1.42-4.09,2.84-6.51,4.53,1.51-2.72,2.75-4.95,3.98-7.18-.16-.11-.32-.21-.49-.32-1.22,1.52-2.44,3.03-3.66,4.55-.1-.08-.21-.16-.31-.24.76-1.43,1.51-2.85,2.46-4.64-1.77.33-3.13.58-4.55.84.1-.45.24-1.15.39-1.86-4.47-.66-10.47,5.68-11.98,11.37h-5.97c.19-.93.38-1.85.61-2.96-1.57.44-2.84.81-4.12,1.17-.02-.14-.05-.28-.07-.42.95-.64,1.89-1.28,3.43-2.32-2.07-1.34-3.61-2.33-5.82-3.76v8.29h-9.29c1.22-1.85,2.45-3.7,3.6-5.44-1.91.76-3.64,2-5.38,2.01-1.92.01-3.84-1.1-6.18-1.86v5.29h-7.3c1.68-5.95.78-10.65-2-10.19.4,1.32.79,2.64,1.04,3.47-2.52,1.47-1.71,3.75-1.86,5.67-.17-1.7-.62-3.44-.43-5.1.31-2.73-.78-4.39-3.07-5.25-.27.55-.6,1.25-1.08,2.22-.29-.82-.42-1.21-.71-2.05-.6,1.25-1.06,2.21-1.52,3.17-.3-.29-.6-.58-.9-.86l2.74-4.63c-3,2.06-4.76,5.74-9.88,3.84.92,1.19,1.25,1.62,1.38,1.78-1.24.87-2.2,1.89-3.38,2.28-1.83.61-5.33,1.41-5.48,1.06-1.13-2.8-5.29-2.21-5.8-5.46-.05-.33-.96-.52-1.86-.96.49.95.74,1.43,1.12,2.15-1.02-.18-1.67-.29-2.57-.45,1.05,1.41,1.9,2.54,2.74,3.66-1.33-.98-2.53-2.2-4-2.86-5.49-2.47-10.06-5.58-10.38-13.25-1.27,2.33-2.23,4.14-3.25,5.91-.12.21-.59.23-.9.34-.36.24-.72.48-.38.26-2.55-1.68-4.76-3.14-7.33-4.84,1.82-2.58,3.49-4.95,4.62-6.55-.2-2.55-1.13-5.01-.3-6.44.9-1.56,3.45-2.17,4.99-3.04-4.41-2.01-4.8-4.18-1.27-8.34.5-.59.27-2.2-.17-3.06-.71-1.41-1.32-2.44-.2-4.04.53-.76,0-2.27-.06-3.55-.02,0,.49-.09,1.01-.18-.01-.16-.02-.32-.03-.48-1.97-.51-3.93-1.01-6.31-1.62.05.33-.03-.22-.05-.34-1.85.96-3.69,1.91-5.52,2.86-.1-.18-.19-.37-.29-.55.74-1.18,1.48-2.36,2.41-3.85-1.47-.49-2.56-.85-3.66-1.21-.15-.06-.27-.12-.38-.18-1.44.77-3.07,1.33-4.28,2.36-1.4,1.19-2.43,2.8-3.62,4.22-.14-.12-.27-.24-.41-.36.77-1.43,1.53-2.87,2.28-4.27-4.75-.88-5.01,3.99-7.88,5.71,1.42-2.13,2.84-4.26,4.58-6.88-1.08.37-1.61.55-2.69.92,1.12-1.92,2-3.43,3.05-5.22-3.31,3.05-6.34,5.84-9.38,8.63-.09-.1-.19-.19-.28-.29,1.28-2.06,2.57-4.12,3.85-6.18l-.64-.43c-1.3,1.44-2.59,2.88-3.92,4.35-3.48-1.79,1.01-3.36-.07-5.36-2.75,3.44-5.34,6.67-7.93,9.9.66-1.99,1.99-3.52,2.78-5.29.69-1.55.78-3.38,1.25-5.58-6.71,6.04-8.82,15.03-16,19.87,1.23-1.8,2.83-3.34,3.95-5.17,3.11-5.07,8.05-9.21,8.28-16.2-1.39.47-3.19.54-3.83,1.43-.91,1.28-.96,3.17-1.38,4.85v-14.73c-3.03,3.41-5.42,6.09-7.8,8.77-.14-.11-.27-.22-.41-.33,1.53-2.31,3.05-4.61,4.75-7.18-3.01,2.14-5.72,4.07-8.42,6-.12-.13-.25-.26-.37-.38.53-1.03,1.06-2.06,1.59-3.09-.23-.25-.47-.5-.7-.75-1.78,1.49-3.79,2.77-5.28,4.5-4.32,4.99-8.43,10.16-12.63,15.26,1-1.82,1.81-3.8,3.05-5.44,2.98-3.95,6.21-7.72,9.23-11.64.72-.93,1.02-2.17,1.52-3.27-.18-.08-.36-.17-.54-.25-.98,1.13-1.97,2.27-3.09,3.57-.14-1.99-.25-3.56-.4-5.58-1.94,2.7-3.57,4.98-5.2,7.26-.24-.16-.47-.31-.71-.47l6.99-10.26c-.25-.23-.5-.45-.75-.68-1.99,1.83-4.19,3.48-5.94,5.51-4.8,5.55-5.1,12.75-6.71,19.44-.33,1.36,1.14,2.64,2.34,2.27-1.14,1.25-1.27,2.25.21,3.54,2.88,2.51,5.54,5.27,8.55,8.17.9-1.55,1.67-2.89,2.28-3.93.44.11,1.11.27,1.89.46.39,1.63.86,3.57,1.42,5.88,1.02-1.45,1.83-2.59,2.63-3.71.22,1.3.45,2.65.77,4.54,1.91-2.26,3.39-4.01,4.87-5.76.18.15.35.29.53.44-1.15,1.79-2.29,3.59-3.47,5.43,4.16,1.53,4.27-2.72,6.81-4.08-1.32,3.09-4.97,6.09.31,8.57,1.79-2.33,3.79-4.94,5.78-7.55.15.11.3.22.45.34-1.65,2.53-3.31,5.06-4.91,7.5,2.93,2.54,3.42-1.25,5.31-1.77-.68,1.42-1.23,2.58-1.76,3.68,2.64,2.64,3.43-.41,5.09-1.23-.52,1.12-1.05,2.23-1.86,3.96,1.61-.13,2.78-.23,3.59-.3.46.62.81,1.6,1.47,1.89,3.23,1.44,6.08.94,7.51-1.85.21.99.46,2.16.86,4.04,1.69-1.84,2.62-2.84,3.54-3.85.12.09.24.17.35.26-.75,1.25-1.51,2.51-2.31,3.85,2.03.96,3.93,1.85,5.98,2.82,1.38-1.76,2.87-3.66,4.36-5.56.15.12.31.23.46.35-1.31,2.02-2.61,4.04-4.06,6.28,2.51.92,4.41,1.73,6.38,2.28.86.24,2.3-.51,2.74-.07,3.12,3.08,7.55,2.41,11.23,4.03-.78-1.02-1.56-2.04-2.32-3.06,4.06,2.53,7.52,5.81,11.8,8.14,2.37,1.29,4.21,2.23,6.76,1.75,1.67,1.89,3.33,3.78,5,5.67h-29.21Zm52.35-21.18c.16-1.03,1.85-2.84-.59-2.73-2.15.1-4.27,1.35-4.57,3.99,1.84-.47,3.55-.91,5.25-1.35-.55.92-1.1,1.83-1.59,2.66-.58-.05-1.36-.11-2.14-.18-.02.91-.2,1.84-.03,2.71.69,3.54,3.46,2.28,5.48,2.35.04-.91-.24-2.04.19-2.69,1.91-2.91,1.58-3.85-1.99-4.76Zm-10.39.62c-1.94.62-4.02,1.11-2.54,3.97.18.35-.04,1.23-.37,1.47-2.45,1.78-4.97,3.46-7.48,5.16.33.37.67.74,1,1.11.44-1.03,1.06-2.03,1.25-3.11.1-.56-.4-1.53-.91-1.81-.56-.31-1.44-.04-2.18-.02.05,2.01-.56,4.41.33,5.91.95,1.58,3.33,2.58,5.1.12,1.21-1.68,2.43-3.36,3.68-5.02.16-.21.47-.31.85-.54-.32.98-.59,1.77-.85,2.56q3.27,1.22,4.06-1.76c.11-.42.21-.86.42-1.23,2.54-4.46,2.33-5.01-2.55-6.86,2.49-.18,5-.48,6.22-3.06.35-.74.05-1.78.05-2.69-.26.04-.53.08-.79.12-.15.51-.29,1.02-.41,1.45-1.09-.56-2.17-1.11-3.21-1.65.42-.83.88-1.75,1.33-2.66-.13-.08-.25-.16-.38-.24-.52.44-1.04.87-2.26,1.9.95-1.83,1.47-2.84,2-3.85l-.54-.44c-.58.89-1.15,1.79-2.16,3.35v-3.43c-1.85,1.15-3.33,2.07-4.84,3.01-1.03-1.36-2.06-2.71-3.36-4.42-.74,1.56-1.16,2.44-1.95,4.1,2.15.1,3.77.18,5.39.26v6.63c-1.88-2.14.35-6.21-4.04-5.41-1.11,4.47-1.13,4.53,3.04,5.8,1.18.36,2.52.18,3.75.4.8.14,1.55.57,2.32.87Zm18,7.03c-.07,4.76,4.34,9.25,9.25,9.4,1.89.06,5.12-3.04,5.15-4.95.07-3.99-5.37-9.08-9.65-9.02-2.51.03-4.72,2.16-4.76,4.57Zm-59.92-6.59c.27.27.33.39.42.42,1.71.4,3.93,1.63,5.02.98,1.52-.92,3.81-2.8,1.67-5.41,0,0,.39-.27.51-.47.23-.4.4-.84.6-1.26-.56-.18-1.13-.55-1.67-.51-3.09.23-5.68,2.73-6.55,6.25Zm5.85-14.79c-.46.05-.93.1-1.39.15-.64,1.2-1.72,2.36-1.82,3.59-.19,2.35,1.77,3.36,3.68,3.2.88-.07,2.46-2.04,2.27-2.75-.41-1.53-1.77-2.81-2.74-4.2Zm2.61-1.28c1.2-1.84,2.55-3.37,2.32-3.65-1.03-1.3-2.43-2.36-3.88-3.19-.18-.11-2.23,1.99-2.03,2.45.61,1.38,1.91,2.45,3.59,4.38Zm-.36-17.05c-.99,2.22-2.64,4.07.07,5.85,1.46.96,3.43,1.53,4.1-.64.99-3.22-2.15-3.61-4.17-5.21Zm49.01,51.6l1.3.55c.79-1.66,1.75-3.26,2.24-5,.13-.48-1.15-1.36-1.53-1.77-.16-1.64-.31-3.21-.46-4.79-.28,0-.56.02-.85.02-.24,3.66-.47,7.32-.71,10.98Zm10.97-26.03c-.87,1.45-1.89,2.39-1.73,3.04.31,1.23,1.17,2.4,2.06,3.36.31.33,1.37-.04,2.09-.08-.32-.93-.6-1.87-.95-2.79-.37-.97-.79-1.91-1.46-3.52Zm-47.63-.61c1.53-3.56.73-4.7-3.07-4.66-1.44,3.03.18,4.16,3.07,4.66Zm11.36,11.2c0,.59,0,1.18,0,1.77,1.73.12,3.47.23,5.2.35-.06-.8-.1-2.3-.17-2.3-1.67-.04-3.35.09-5.03.19Zm20.23-16.48c-.44.31-.88.63-1.31.94.9,1.49,1.73,3.04,2.78,4.41.17.22,1.34-.32,2.71-.68-1.72-1.92-2.95-3.3-4.18-4.68Zm-32.08,16.18c-1.27-1.09-1.95-1.99-2.84-2.31-.41-.15-1.83,1.05-1.75,1.27.33.92.89,2.02,1.69,2.43.46.24,1.53-.69,2.9-1.39Zm65.5,3.5c.49.07.97.13,1.46.2.27-1.23.67-2.47.7-3.71,0-.24-1.4-.52-2.16-.78v4.28Zm-46.9-23.05c-1.1-1.04-1.72-1.62-2.34-2.21-.63.74-1.47,1.41-1.79,2.27-.13.36.94,1.68,1.28,1.61.85-.17,1.59-.88,2.86-1.67Zm-17.08-3.1c.83-1.64,1.51-2.46,1.59-3.33.05-.52-.84-1.13-1.31-1.7-.63.79-1.47,1.5-1.79,2.4-.16.43.66,1.22,1.52,2.64Z"/>
  <path class="cls-2" d="m522.75,645.94c-.85-1.13-1.7-2.26-2.75-3.67.9.16,1.55.27,2.57.45-.38-.72-.62-1.2-1.12-2.15.9.44,1.81.64,1.86.96.51,3.25,4.67,2.66,5.8,5.46.14.35,3.65-.45,5.48-1.06,1.18-.39,2.14-1.42,3.38-2.28-.13-.16-.46-.59-1.38-1.78,5.12,1.9,6.88-1.78,9.88-3.84l-2.74,4.63c.3.29.6.58.9.86.46-.96.93-1.93,1.52-3.17.29.84.42,1.22.71,2.05.47-.98.81-1.67,1.08-2.22,2.29.86,3.38,2.52,3.07,5.25-.19,1.66.27,3.4.44,5.08-.16.35-.33.71-.5,1.08h-23.23c-1.67-1.89-3.33-3.78-5.01-5.68-.01-.01.04.04.04.04Z"/>
  <path class="cls-1" d="m210.4,651.58c-.37-3.63-.71-7.26-1.14-10.88-.2-1.71-.59-3.4-1-5.69-3.43,2.39-1.96,6.09-4.21,8.39.62-2.65,1.16-5.32,1.87-7.94,2.61-9.54,4.18-19.21,3.87-29.13-.13-4.26-1.69-7.5-6.72-8.09,2.97-1.53,7.81,1,8.07,3.76.08.89.83,1.73,1.46,2.95,6.05-7.08,11.68-13.67,17.32-20.27.16.12.31.23.47.35-3.49,4.43-6.7,9.13-10.55,13.21-4.89,5.18-7.51,10.83-8.45,18.08-1.2,9.22-1.27,18.19.15,27.3.4,2.6.15,5.3.19,7.95h-1.33Z"/>
  <path class="cls-2" d="m590.79,651.58c1.51-5.69,7.51-12.03,11.98-11.37-.15.71-.3,1.41-.39,1.86,1.42-.26,2.79-.51,4.55-.84-.95,1.79-1.7,3.22-2.46,4.64.11.08.21.16.31.24,1.22-1.52,2.44-3.03,3.66-4.55.16.11.32.21.49.32-1.24,2.23-2.48,4.46-3.98,7.18,2.43-1.69,4.47-3.11,6.51-4.53.14.11.29.22.43.33-1.95,2.24-3.89,4.48-5.84,6.72h-15.27Z"/>
  <path class="cls-2" d="m561.58,651.58v-5.29c2.34.76,4.27,1.87,6.18,1.86,1.74-.01,3.48-1.25,5.38-2.01-1.15,1.74-2.37,3.59-3.6,5.44h-7.97Z"/>
  <path class="cls-2" d="m578.84,651.58v-8.29c2.21,1.43,3.75,2.43,5.82,3.76-1.54,1.04-2.48,1.68-3.43,2.32.02.14.05.28.07.42,1.28-.36,2.55-.72,4.12-1.17-.23,1.1-.42,2.03-.61,2.96h-5.97Z"/>
  <path class="cls-2" d="m550.96,651.58c.17-.36.34-.73.5-1.08.14-1.9-.67-4.18,1.85-5.65-.25-.82-.64-2.14-1.04-3.47,2.79-.46,3.69,4.25,2,10.19h-3.32Z"/>
  <path class="cls-1" d="m201.5,580.18c2.57-3.62,2.6-7.67.66-11.28-1.67-3.09-4.6-5.47-6.63-8.4-1.13-1.62-1.72-3.69-2.26-5.63-.44-1.58-.57-3.27-.64-4.92-.56-13.88-3.4-27.43-5.68-41.08-3.21-19.24-8.92-37.73-15.58-55.97-1.84-5.05-4.48-9.81-6.71-14.72-.54-1.18-.91-2.44-1.37-3.67l-.07.07c1.41,1.97,2.81,3.94,4.22,5.91l.92-.35c-1.73-5.03-3.47-10.06-5.28-15.31.51.03.37,0,.35.03-.09.2-.16.41-.24.62-.4-.41-1.12-.8-1.14-1.22-.12-2.08-.05-4.18-.67-6.29v4.88c-1.04-1.97-2.34-3.47-2.6-5.14-.32-2.05.79-4.39.28-6.34-.92-3.48-2.38-6.87-4-10.11-5.07-10.13-10.21-20.2-18.55-28.22-5.88-5.65-11.55-11.51-17.2-17.39-1.8-1.88-3.25-4.1-4.85-6.15,1.24,1.09,2.41,2.24,3.72,3.22.6.45,1.46.54,2.2.8.5,1.03.76,2.29,1.52,3.06,4.4,4.49,8.9,8.87,13.4,13.25.82.8,1.82,1.41,3.39,2.62-.72-1.86-.92-3.54-1.85-4.58-5.9-6.6-11.96-13.06-17.96-19.57-.29-.31-.83-.7-.78-.97.88-4.81-3.7-5.72-5.86-8.36,1.06,1.46,2.11,2.93,3.45,4.78-1.01-.35-1.48-.51-2.12-.72,1.95,2.94,3.79,5.72,5.64,8.5-1.51-1.39-2.99-2.81-4.55-4.14-.17-.15-.77.19-1.17.3-.83-1.44-1.61-2.91-2.49-4.32-.69-1.11-1.5-2.16-1.92-3.63,1.11.83,2.22,1.66,3.33,2.5.18-.16.36-.31.54-.47-2.17-2.29-4.33-4.6-6.6-6.79-.08-.08-1.53.9-1.94,1.62-.42.73-.33,1.75-.87,2.71-.21-3.03-2.55-2.92-4.43-3.63-6.27-2.35-12.47-4.87-18.69-7.35-.39-.16-.69-.54-.91-1.1,7.71,3,15.42,5.99,23.12,8.99.19-.47.39-.93.58-1.4-4.54-4.15-11.06-4.08-16.27-7.71.97,0,2.03-.26,2.88.05,3.51,1.28,7.06,2.52,10.38,4.18,2.84,1.42,4.6,1.12,5.8-2-.09,1-.18,1.99-.25,2.76,8.7,5.46,15.14,12.89,21.09,20.84,3.42,4.57,7.14,8.91,10.47,13.55,2.57,3.59,4.82,7.42,7.05,11.23,1.54,2.62,2.75,5.42,4.21,8.08,4.08,7.41,8.37,14.71,12.25,22.21,1.89,3.66,2.89,7.78,4.62,11.54,2.02,4.39,4.6,8.51,6.54,12.93,1.53,3.47,2.33,7.25,3.67,10.82,1.43,3.84,3.1,7.59,4.68,11.42-.14.02.02.03.04-.01.13-.33.23-.67.39-1.13,1.1,4.7,2.15,9.18,3.19,13.66.15,0,.3,0,.45,0-.06-1.28-.12-2.56-.17-3.85.3,0,.6,0,.89,0,0,2.42-.16,4.85.07,7.24.11,1.15.92,2.25,1.43,3.36.1.22.4.47.35.61-1.97,4.84,3.39,8.69,1.97,13.49.15-1.06.29-2.13.5-3.66.33,1.56.57,2.67.89,4.16.94-1.21,1.63-2.08,2.29-2.93,1.24,7.23,2.48,14.39,3.75,21.78.53-.37.87-.6,1.07-.75.41,2.21.82,4.44,1.32,7.15.31-1.04.5-1.67.92-3.06-.92,6.66,1.72,11.7,3.62,16.97,1.12,3.11,1.5,6.47,2.49,9.64,2.22,7.09,1.62,14.41,2.29,21.63.29,3.09,2.07,6.27,1.57,9.63-.38,2.58-1.2,5.09-1.74,7.65-.62,2.98,1.07,6.13-1,9.14-.58.84.36,2.95.97,4.33.79,1.8,1.93,3.44,2.63,5.32-4.78-3.87-5.89-10-8.92-14.94l-.07.07Z"/>
  <path class="cls-1" d="m425.83,387.08c7.31,4.44,14.82,8.58,21.86,13.41,5.81,3.98,10.81,9.13,16.61,13.13,8.38,5.79,14.89,13.53,22.37,20.25,4.13,3.71,8.54,7.11,12.78,10.7,8.34,7.08,14.72,15.78,20.42,25,6.98,11.3,15.21,21.56,24.74,30.8,5.31,5.14,10.4,10.51,15.81,15.54,3.26,3.03,7.03,5.5,10.41,8.41,1.54,1.32,2.7,3.08,3.61,5.16-.26-.17-.54-.33-.79-.53-15.48-11.99-28.89-26.16-42.12-40.47-4.73-5.11-8.35-11.28-12.23-17.13-4.62-6.96-9.96-13.24-16.3-18.66-.59-.51-1.67-1.01-2.31-.82-2.07.64-4.67,1.06-5.93,2.53-4.64,5.43-9.21,11.01-13.08,17.01-3.71,5.74-6.5,12.06-9.72,18.12-.2.38-.53.7-1.08.9,1.42-3.1,2.64-6.31,4.3-9.27,3.22-5.76,6.78-11.32,10-17.07,2.3-4.11,4.89-8.07,5.62-12.97.57-3.83-2.34-5.52-3.88-8.08-.5-.83-1-1.92-1.79-2.27-1.89-.84-3.51-.29-4.92,1.41-3.22,3.87-6.67,7.55-9.89,11.42-1.25,1.5-2.12,3.32-3.05,4.81-1.16-2.97-2.04-6.61-.92-10.47,2.16-7.42-.46-12.64-7.66-15.18-.61-.22-1.17-.58-1.73-.86q-1.46,2.03.99,5.58c-7.82-5.26-12.01-13.72-19.84-17.86-.32.35-.65.7-.97,1.04.62.28,1.25.57,1.87.85-.18.37-.35.74-.53,1.11-2.83-1.13-5.74-2.1-8.47-3.43-3.86-1.88-7.57-4.09-11.4-6.04-.93-.47-2.26-.98-3.11-.67-6.22,2.25-12.3,4.51-15.94,10.92-3.01,5.3-7.01,10.03-10.56,15.01-.34-.23-.68-.46-1.02-.69.43-.66.84-1.33,1.3-1.97,3.55-5.04,7.01-10.13,10.7-15.07,1.36-1.81,3.02-3.59,4.93-4.75,2.9-1.75,6.1-3.05,9.26-4.32,1.02-.41,2.51-.55,3.44-.11,4.27,2.05,8.47,4.26,12.59,6.59,1.57.89,2.69,1.24,4.51.26,1.43-.77,3.64-.94,5.21-.44,5.3,1.7,9.15,5.17,11.07,11.87,2-3.06,4.09-5.1,4.73-7.52.91-3.44,2.88-5.29,6.51-6.85,2.78,3.44,5.56,7.03,8.58,10.4.44.49,2.04-.06,3.1-.12-.16-.92,0-2.22-.54-2.7-4-3.51-8.08-6.92-12.24-10.25-11.04-8.83-22.1-17.64-34.55-24.5-.35-.19-.45-.82-.67-1.25l-.06.05Zm26.34,43.36c1.42-.07,2.73.16,2.9-.18,1.21-2.46,3.79-.5,3.98-.31,3.07,3.22,5.88,6.68,8.76,10.07.52.61,1.1,1.18,1.65,1.77.54-.74,1.48-1.46,1.54-2.23.27-3.63-1.89-6.25-4.47-8.24-3.15-2.44-6.69-4.39-10.26-6.68-1.44,2.05-2.55,3.63-4.09,5.81Z"/>
  <path class="cls-1" d="m254.47,504.87c-.25.19-.5.39-.61.47,1.03-3.16,2.09-6.43,3.15-9.7l-.99.11c-.52-2.37-1.03-4.75-1.59-7.3-.12.69-.24,1.32-.35,1.94,1.56-7.52-4.96-11.87-6.7-18.38-1.34,1.53-2.32,2.66-3.31,3.8-.11-.06-.23-.12-.34-.19.78-1.5,1.56-3,2.76-5.3-2.05.75-3.4,1.25-4.29,1.57.46-2.06,1.01-4.59,1.57-7.12-.08-1.09-.16-2.17-.24-3.26-1.65.13-3.3.26-4.82.38.08-.6.25-1.96.43-3.31-.31-.09-.62-.17-.93-.26-.7.59-1.4,1.18-2.85,2.4.76-1.61,1.1-2.35,1.67-3.56-.97.42-1.55.67-2.16.93.21-.51.44-1.03.66-1.56-.17-.13-.34-.26-.51-.39l-5.64,6.73c-.1-.07-.19-.14-.29-.21,1.67-2.5,3.34-5.01,4.95-7.42-2.06-2.61-4.03-5.1-5.99-7.58-1.53,1.15-2.22,5.55-4.05.51-.71-1.96-3.03-3.29-4.46-5.04-.78-.97-1.13-2.28-1.84-3.32-.48-.71-1.25-1.22-1.49-1.45-.95-3.09-1.86-6.02-2.63-8.53-1.62.14-2.54.22-3.01.26-1.17-2.84-2.15-5.96-3.73-8.72-.56-.98-2.6-1.11-3.63-1.5-.84-1.69-1.53-3.61-2.64-5.23-3.5-5.1-7.38-9.95-10.7-15.16-2.62-4.09-4.41-8.71-6.98-12.84-3.98-6.41-8.89-12.1-14.54-17.13-.95-.85-1.77-1.83-2.65-2.76.21-.24.42-.48.63-.73,3.66,2.9,7.53,5.58,10.92,8.77,2.27,2.14,3.75,5.09,5.79,7.5,5.76,6.83,11.73,13.49,17.41,20.38,4.7,5.71,9.67,11.31,13.51,17.58,3.97,6.48,9.1,11.87,13.87,17.61,4.79,5.77,9.64,11.48,14.45,17.23,2.21,2.63,4.52,5.19,6.52,7.98,1.09,1.52,1.86,3.38,2.38,5.2,2.44,8.63,5.1,17.22,6.92,25.98.79,3.78-.27,7.95-3.76,10.75,0,0,.13-.13.13-.13Z"/>
  <path class="cls-1" d="m169.16,36.69c-.47-.15-.97.07-1.21.51-.58,1.05-2.69,2.35,1.35,2.39l-.95.87c-.15.14-.34.23-.55.26-3.68.51-7.36,1.03-11.06,1.54-.8.11-1.41-.71-1.06-1.45l.18-.39c-.13-.08-.26-.17-.39-.25-.92.86-1.84,1.72-2.76,2.58-.16-.13-.32-.27-.47-.4,1.21-1.47,2.41-2.93,3.88-4.71.61-.74-.05-1.86-.99-1.65-.36.08-.65.18-.9.35-3.08,2.13-5.97,4.53-9.09,6.6-2.37,1.58-4.83,3.18-7.49,4.13-5.97,2.13-12.1,3.79-18.11,5.8-.9.3-1.57,1.41-2.24,2.24-2.14,2.64-4.23,5.33-6.33,7.99-.27-.2-.54-.4-.81-.6,2.09-2.56,4.18-5.12,6.37-7.8.53-.65.1-1.6-.73-1.67-6.26-.49-11.14,3.7-17,4.11,1.27-.56,2.51-1.17,3.8-1.68,1.4-.55,2.83-1.01,4.24-1.51-.07-.36-.14-.72-.22-1.09-2.12.31-4.36.3-6.34,1-2.25.8-4.21,2.38-6.41,3.38-2.8,1.27-5.7,2.31-8.83,2.8,1.1-.6,2.21-1.19,3.31-1.79l-.31-.73c-3.13,1.27-6.26,2.53-9.39,3.8-.09-.21-.18-.43-.28-.64,1.64-.76,3.33-1.45,4.91-2.32.44-.24.59-1.01.87-1.54-.53-.24-1.18-.81-1.57-.67-3.44,1.27-6.72,2.8-9.41,5.88-.55.63-.11,1.63.73,1.67.57.03,1.07.06,1.58.08-5.31-.92-5.05,4.08-6.94,6.64-.44.6-1.35.56-1.72-.09l-.09-.16c-.26-.46-.12-1.06.34-1.36l1.11-.71c.2-.13.35-.32.42-.55,1.19-3.82,2.97-7.32,6.47-9.52,1.94-1.22,4.2-1.95,6.32-2.88,2.08-.92,3.94-1.5,6.37-.21,1.6.85,4.51.94,5.99.02,6.63-4.11,13.97-3.94,21.14-3.72,7.37.22,13.98-1.99,20.42-4.83,4.1-1.81,7.82-4.53,11.64-6.95,2.46-1.55,4.78-3.32,7.21-4.91.42-.27,1.13-.15,1.7-.13,6.27.24,12.54.61,18.82.69,2.35.03,4.77-.38,7.06-.99,2.55-.68,5-1.75,7.44-2.76,6.31-2.61,13.04-2.11,19.61-2.58,5.17-.38,10.47-.79,15.55-.04,7.93,1.18,15.71,3.38,23.58,5.01,1.37.28,3.01.24,4.29-.25,3.78-1.46,7.14-1.26,10.73.85,5.11,3,10.51,5.51,15.58,8.81-2.85-1.13-5.71-2.27-8.52-3.38-.38-.15-.8-.05-1.09.23-3.49,3.37-6.35,3.74-11.13,1.73-5.01-2.11-10.05-4.14-15.06-6.25-1.56-.65-3.01-1.77-4.62-2-.93-.13-2.05,1.07-2.91,1.57,1.07.11,2.45.26,3.5.37-2.73,1.05-5.63,2.16-8.4,3.22-.37.14-.8.08-1.06-.22-.54-.59-1.8-.94-2.63-.09-.11.11-.21.22-.32.33-.68.72-1.88.18-1.77-.81v-.07c.12-.97-1.06-1.53-1.74-.82-.36.38-.75.78-1.15,1.21v-1.56c-.93.2-1.87.4-2.85.6-.69.14-1.31-.43-1.22-1.12.02-.18.05-.39.08-.61-.54.31-.99.58-1.43.83s-1.01.14-1.32-.27c-3.24-4.24-3.49-4.02-8.44.29.17-.32.31-.59.44-.84.4-.76-.26-1.64-1.1-1.47-4.26.85-8.53,1.69-12.79,2.54l-.76-2.54c.86-.35,1.72-.7,2.57-1.05-.03-.13-.06-.25-.09-.38-.74.17-1.49.35-2.23.52-3.67.84-7.46,1.36-10.98,2.62-3.37,1.21-6.62,2.23-10.19,1.52-.74-.15-1.46-.36-2.18-.58Z"/>
  <path class="cls-1" d="m131.58,334.47c-1.32-1.14-2.64-2.27-3.96-3.41-.1.08-.19.16-.29.24,2.88,4.36,5.53,8.9,8.71,13.04,3.21,4.18,6.87,8.02,10.47,11.89,3.65,3.91,7.46,7.67,10.84,11.93-.51-.18-1.02-.37-1.76-.63.72,1.2,1.3,2.16,1.87,3.12-.1.07-.2.13-.3.2-3.09-2.91-7.44-5.27-9-8.84-2.57-5.9-7.79-8.96-11.46-13.58-.65-.82-1.8-1.24-2.71-1.85-.31.26-.63.52-.94.78.66,1.09,1.12,2.38,2,3.25,5.71,5.75,11.71,11.24,17.19,17.2,2.33,2.54,3.63,6.02,5.39,9.08.1.17.15.47.07.64-2.24,4.75,2.11,6.15,4.36,8.62,1.06,1.16,2.07,2.37,3.1,3.56-.44.37-.88.75-1.32,1.12-4.84-5.86-9.81-11.63-14.49-17.62-3.17-4.05-5.99-8.39-8.89-12.64-5.73-8.41-11.4-16.87-17.09-25.3-.06-.09-.08-.21-.15-.29-3.3-3.94-6.58-7.9-9.93-11.8-1.1-1.29-2.45-2.21-2.93-4.13-.29-1.15-1.95-2.06-3.13-2.88-4.73-3.29-9.31-6.85-14.32-9.65-8.63-4.82-16.35-11.62-26.73-12.83-.66-.08-1.27-.68-1.64-1.77,2.13.63,4.25,1.26,6.21,1.85.68-1.7,1.27-3.16,1.87-4.65-.31-.05-.73-.11-1.61-.25,1.83-.91,3.34-1.65,4.92-2.43,2.47,2.31,4.83,4.9,7.58,6.98,2.97,2.24,6.38,3.89,9.47,5.99,3.26,2.22,6.36,4.69,9.55,7.01,1.83,1.33,3.71,2.58,5.99,4.15,1.09-6.56,3.37-11.75,7.47-16.06-1.66,3.19-3.34,6.38-4.98,9.58-1.92,3.74-1.19,5.19,1.68,8.17,4.77,4.95,9.05,10.39,13.56,15.59,1.86,2.14,3.8,4.2,5.7,6.3-.13.11-.26.22-.39.33Zm-12.74-11.54c1.3,2.6,2.61,5.21,3.91,7.81l1.27-.51c-.25-1.05-.5-2.1-.75-3.16-.3.32-.61.65-.46.5-1.36-1.53-2.7-3.05-4.04-4.57-.79-1.15-1.59-2.31-2.63-3.83.96.37,1.36.52,1.76.68-.33-1.17-1.06-1.88-1.92-2.33-.49-.25-1.28-.26-1.78-.03-.3.14-.55,1.25-.38,1.4,1.62,1.41,3.34,2.71,5.02,4.04Zm-45.33-30.33c10.76,6.67,21,13.01,31.9,19.76-.27-1.17-.21-2.07-.63-2.48-1.34-1.29-2.76-2.56-4.33-3.54-2.72-1.71-5.74-3-8.35-4.85-3.93-2.8-7.52-6.09-11.48-8.85-1.78-1.24-4.03-2.73-7.11-.04Z"/>
  <path class="cls-1" d="m358.17,115.6c.11,11.05-.12,22.11-.28,33.16-.08,5.52-.31,11.05-.46,16.57-.06,2.25-.81,3.86-3.61,4.01-.13-2.6,1.85-5.49-.76-7.75-.46.29-.79.38-.81.52-.99,6.67-1.01,6.76-7.86,5.61-6.42-1.08-12.8-2.45-19.22-3.52-1.02-.17-2.18.54-3.68.95-1.02-2.22-2.29-5.13-3.66-8-2.13-4.46-6.24-5.76-10.67-3.55-2.14,1.07-4.37,1.95-6.58,2.93,2.51,4.55.68,9.4-4.08,12.15-2.44,1.41-5.68,2.69-3.08,7.03-5.54-4.34-6.63-9.51-2.85-14.4,7.42-9.58,15.11-18.94,22.69-28.39.4.31.8.62,1.2.93-8.03,9.64-16.06,19.29-24.08,28.93l1.15,1.06c.97-1.18,1.91-2.4,2.92-3.55,3.82-4.34,8.84-6.83,14.05-8.98.78-.32,1.8-.48,2.6-.28,9.75,2.42-3.23-1.37,6.39,1.6-7.45-1.65,7.82,2.99.23,1.31q1.61,3.99,6.88,5h-3.81c-.12.35-.23.69-.35,1.04,1.13.37,2.23.86,3.38,1.09,1.06.21.18,1.01,1.19,1.34,5.93,1.94,13.9,2.91,20.4,5.13,1.21-2.71,2.21-4.95,3.31-7.4.33-.13,1.41-.53,2.48-.94-.42-1-.85-2.01-1.26-2.98,3.36-.7,5.02-2.51,5.03-6.4.03-8.96.04-17.92-.19-26.87-.09-3.31-.55-3.42-4.25-3.21.85-.77,1.54-1.21,1.95-1.83.39-.59.49-1.38.81-2.34-1.19.13-2.08.23-3.75.42,2.29-1.6,3.92-2.74,6.18-4.33-4.51-1.79-6.51.91-9.01,3.1.29-3.87.56-7.45.83-10.97,1.68.84,2.8,1.4,3.93,1.96.5-1.24.99-2.48,1.51-3.71.44-1.03.93-2.03,1.75-3.84"/>
  <path class="cls-1" d="m371.86,389.15c1.39,12.69,3.65,25.34,1.42,38.94-.26-1.51-.4-2.3-.48-2.73-.34,3.69-.72,7.75-1.1,11.81l-.27-.03v-15.05c-.97,3.51-1.92,6.95-2.89,10.48.16-2.45.31-4.85.47-7.25-.25,0-.49-.02-.74-.03v12.78c-.19,0-.38.02-.56.03-.27-2.78-.54-5.56-.9-9.25-.24,1.83-.37,2.8-.5,3.77.17-.07.33-.14.5-.2-9.47-24.05-18.94-48.1-28.17-71.55,1.66,3.15,3.77,6.85,5.59,10.69,1.85,3.88,3.33,7.93,5.15,11.82,1.11,2.37,2.31,4.79,3.92,6.83,2.87,3.62,6.21,6.68,11.66,5.26.25-.82.59-1.93,1.02-3.34,1.91,4.4,3.68,8.47,5.45,12.54l.65-.12c-.37-5.12-.74-10.24-1.11-15.36.3,0,.6-.01.9-.02Z"/>
  <path class="cls-1" d="m130.76,424.14c-.3-1.23-.23-2.55-.85-3.19-6.98-7.17-13.64-14.73-21.24-21.19-9.31-7.91-19.47-14.67-31.74-17.66-4.06-.99-7.73-3.6-11.58-5.47.14-.3.27-.61.41-.91,2.58,1.09,5.16,2.17,7.82,3.3-.45-.95-.92-1.96-1.39-2.97.14-.19.28-.39.41-.58,1.62,1.2,3.14,2.59,4.89,3.55,5,2.73,10.01,5.46,15.18,7.85,6.67,3.09,12.68,6.9,17.98,12.13,8.29,8.19,17.32,15.64,25.55,23.89,8.39,8.41,16.57,17.1,22.66,27.43.95,1.61,1.2,3.64,1.73,5.49,1.48,5.14,2.83,10.31,4.49,15.39.3.91,1.84,1.42,2.97,2.22-.56.22-1.17.45-2.3.89,1.48,2.37,2.95,4.53,4.19,6.81.76,1.4,1.24,2.97,1.7,4.5.09.29-.83.85-.77,1.19.19.98.62,1.92.98,2.86.33.86.91,1.68,1.01,2.56.19,1.74.13,3.51.16,5.26.02,1.5.11,3.01,0,4.51-.07,1.03-.86,2.17-.6,3.04,1.61,5.44,3.33,10.85,5.21,16.2,1.68,4.76,3.63,9.42,5.44,14.14.14.37.09.82.13,1.23-.34.12-.69.23-1.03.35-2-5.2-3.97-10.41-6.02-15.59-1.45-3.66-3.38-7.17-4.42-10.93-1.25-4.52-1.79-9.24-2.64-13.88-.37-2.03-.68-4.06-1.08-6.09-.72-3.65-1.47-7.29-2.22-10.93-.22-1.08-.29-2.23-.71-3.23-3.75-8.9-7.96-17.63-11.21-26.7-2.19-6.12-5.12-11.54-9.92-15.71-4.22-3.67-9-6.7-13.19-9.76Z"/>
  <path class="cls-1" d="m197.96,374.29c-.51-.87-1.03-1.75-1.54-2.62.15-.11.3-.22.44-.34,4.32,4.1,8.65,8.21,12.97,12.31.23-.25.47-.49.7-.74-10.15-10.43-20.29-20.86-30.44-31.29.12-.11.24-.22.35-.32,6.88,6.77,13.6,13.72,20.71,20.25,3.85,3.53,8.59,6.09,12.53,9.53,4.43,3.86,10.11,5.12,15.01,7.99,5.12,3.01,10.63,5.35,15.96,7.99.29.14.55.34.89.56-1.66.17-3.24.33-4.95.51v-1.97c-1.75,1.08-3.06,1.9-4.55,2.82-.02-.35-.05-.8-.09-1.64-.81.6-1.5,1.11-2.19,1.62,0-.27,0-.53-.01-.8-.79.04-1.59.08-2.29.12.1-.32.29-.93.74-2.39-1.41,1.2-2.13,1.82-2.91,2.49.12-.7.23-1.37.47-2.83-1.33,1.41-2.13,2.27-2.93,3.12-.09-.07-.18-.15-.27-.22.51-.9,1.03-1.8,1.75-3.07-1.68.11-3.04.2-4.4.28-5.01-2.79-7.97-8.28-12.94-11.52q1.16,2.28,0,3.3c-4.34-4.38-8.68-8.77-13.02-13.15Z"/>
  <path class="cls-1" d="m204.8,489.41c.27-1.21.14-2.97.89-3.52,2.91-2.14,6.11-3.9,9.2-5.81.19.3.38.59.58.89-.74,1.12-1.48,2.25-2.22,3.37.2.15.39.29.59.44,3.97-5.03,7.94-10.06,11.91-15.09l.6.43c-2.04,2.75-4.08,5.5-6.1,8.26-1.66,2.27-4.07,4.28-3.41,7.5.35,1.72,1,3.49,1.95,4.94,1.26,1.92,2.43,3.39.3,5.61-.8.83-.53,2.71-.84,4.63-2.47-3.18-4.17-1.82-6.37.6-.45-2.52-.77-4.36-1.17-6.62-.24,1.02-.41,1.75-.44,1.88-.65-1.31-1.9-2.88-2.16-4.6-.25-1.67.5-3.49.74-4.83-1.08.58-2.6,1.4-4.11,2.21.03-.11.05-.22.07-.32Z"/>
  <path class="cls-1" d="m340.16,194.78c-1.64.34-3.27.69-4.91,1.03-.03.25-.05.49-.08.74,6.24,1.97,12.48,3.95,18.72,5.92.24-.52.48-1.05.72-1.57-1.99-1.26-3.84-2.83-5.99-3.69-2.73-1.09-5.69-1.61-8.55-2.38-1.13-.35-2.26-.7-3.4-1.04,4.49.37,8.76,1.64,13.12,2.49,1.51.29,3.28-.27,4.79-.81.47-.17.5-1.54.74-2.37-.89-.11-1.95-.58-2.63-.25-1.22.58-2.21,1.64-3.35,2.55-.94-2.52-11.71-6.89-16.67-6.99.45,6.1,1.55,7.03,7.48,6.37Zm-8.12-11.34c-.31.42-.63.84-.94,1.26,1.16.89,2.25,1.9,3.49,2.63.92.54,2.03.79,3.07,1.09,3.69,1.04,7.38,2.12,11.11,2.97.54.12,1.35-.99,2.04-1.53-.97-.77-1.82-1.93-2.92-2.24-5.25-1.52-10.57-2.8-15.87-4.17Z"/>
  <path class="cls-1" d="m307.71,330.61c3.54-2.69,6.94-5.26,10.66-8.09.1,1.31.17,2.16.26,3.27-.36-.2-.57-.42-.76-.41-2.02.13-2.77,1.83-1.41,2.71,3.83,2.48,1.5,5.88,1.61,8.88-.13-1.49-.27-2.98-.4-4.46-.87,4.2-.63,8.43-1.25,12.65-.68,4.6-.15,9.38-.69,14.08-2.65-9.45-5.29-18.91-8.02-28.64Z"/>
  <path class="cls-1" d="m118.59,268.51c2.52,3.03,5.1,6.01,7.54,9.1,11.98,15.12,23.98,30.23,35.85,45.43,9.51,12.18,20.12,23.34,30.97,34.29.72.73,1.36,1.54,1.52,2.8-4.42-4.37-9-8.61-13.24-13.15-7.42-7.97-14.97-15.86-21.86-24.27-8.56-10.45-16.41-21.48-24.76-32.1-5.57-7.08-11.49-13.87-17.25-20.8.41-.43.81-.87,1.22-1.3Z"/>
  <path class="cls-1" d="m248.56,581.64c2.15-2.28,4.48-4.42,6.4-6.88,3.02-3.87,5.76-7.96,8.61-11.95,0,0-.14-.05-.14-.05,2.34-2.8,4.69-5.59,6.88-8.21-.51,5.58-1.09,11.91-1.67,18.22,2-.52,4.41-1.13,6.81-1.75.08.25.17.49.25.74-6.38,2.38-12.77,4.76-18.81,7.01-.06.1.24-.57.67-1.14,1.73-2.26,3.74-4.36,5.17-6.79.74-1.26.49-3.11.74-5.09-4.61,5.88-9.17,11.7-13.97,17.83-.55-1.2-.73-1.6-.91-1.99l-.03.05Z"/>
  <path class="cls-1" d="m334.17,232.19c1.39,12.26-1.48,23.74-5.58,35.05-1.99,5.5-2.57,11.19-1.18,16.94,2.34,9.72,1.34,19.21-1.08,28.8-.67,2.67.25,5.96,1.13,8.75,2.15,6.8,4.69,13.48,7.35,20.97-4.22-6.33-5.98-12.9-8.39-19.18-.08-.21-.1-.44-.2-.63-2.69-5.11-2.39-9.87,0-15.31,2.57-5.83,1.54-12.41.58-18.66-1.38-8.95-1.38-17.48,1.98-26.34,3.65-9.63,5.92-19.89,5.38-30.39Z"/>
  <path class="cls-1" d="m282.07,334.12c0,6.65.6,13.56-.15,20.32-.95,8.59-4.79,16.2-10.65,22.78,2.62-5.81,5.22-11.56,7.82-17.31-.33-.18-.67-.37-1-.55-.45.32-.9.65-.68.49.33-5.03.69-10.45,1.04-15.87.26,0,.52,0,.79,0v8.82c.18,0,.37,0,.55,0v-13.64c-.29,1.2-.45,1.89-.64,2.68-2.83-4.04-2.63-4.76,1.41-6.45.73-.31,1.27-1.08,1.51-1.28Z"/>
  <path class="cls-1" d="m378.52,374.61c-.02.06.09.17.37.68"/>
  <path class="cls-1" d="m247.59,187.58c-3.33-.5-6.66-1.38-9.99-1.38-2.52,0-5.23.75-7.52,1.85-2.72,1.31-2.63,4.05-.19,5.88-2.53,5.33-4.37,6.76-8.15,6.08,2.99-1.46,5.89-2.82,5.42-7-2.53,2.49-5.05,4.98-7.58,7.47l-.7-.66c.84-1,1.95-1.89,2.43-3.04.45-1.08.23-2.45-.34-4.02-3.74,4.57-7.47,9.14-11.21,13.71-.28-.24-.57-.47-.85-.71,4.69-5.49,8.88-11.54,14.25-16.24,3.06-2.67,7.95-3.82,12.19-4.41,4.07-.57,8.54-.33,12.17,2.54l.07-.08Z"/>
  <path class="cls-1" d="m10.7,376.62c7.41-2.43,15.04-1.91,22.66-1.81,2.7.03,2.7-.04,3.39-2.61.94,3.27,2.64,2.07,4.86,1.75,3.17-.45,6.55.5,9.68.84.28-.9.48-1.54.68-2.18.53.38,1.03.8,1.59,1.12,1.41.8,2.89,1.5,4.27,2.35,3.12,1.92,6.2,3.9,9.29,5.85l.07-.08c-.93.09-2.11.59-2.75.2-2.8-1.71-5.49-3.49-8.99-3.38-.52.02-1.07-.76-1.61-1.18-3.88-3.02-8.31-1.65-12.6-1.64-3.48,0-6.97-.38-10.44-.28-3.66.11-7.31.58-10.96.89-.09.48-.17.96-.26,1.43,4.4,1.33,8.8,2.65,13.2,3.98-.05.21-.1.42-.14.64-3.49-.88-6.99-1.72-10.46-2.67-3.82-1.05-7.62-2.2-11.42-3.31,0,0-.06.08-.06.08Z"/>
  <path class="cls-1" d="m247.34,166.37c-3.89,5.12-9.68,1.71-12.83,4.93-1.08-.99-1.83-1.67-3-2.74h-5.45c.9-3.41,4.06-4.04,7.09-4.4,3.24-.39,6.56-.54,9.8-.25,1.47.13,2.83,1.55,4.38,2.47Z"/>
  <path class="cls-1" d="m263.42,562.76s.14.05.14.05c-.06-1.73-.15-3.47-.17-5.2-.03-2.26,0-4.52-.7-7.22-.53.9-1.06,1.8-1.59,2.71-.14-.12-.29-.23-.43-.35.03-.57.07-1.14.15-2.48-2.65,3.72-4.89,6.85-7.12,9.98-.22-.15-.43-.29-.65-.44,1.82-2.77,3.51-5.65,5.5-8.29,2.69-3.58,4.75-7.33,5.06-11.9.04-.51,1.08-.94,1.64-1.4,2.8-2.54,1.71-5.69,1.34-8.74v-9.15c.35,0,.69,0,1.04,0v25.16s-.09.02-.13.03v-6.67c-.43-.07-.86-.15-1.29-.22-.72,3.06-1.44,6.13-2.23,9.5.96-.32,1.44-.48,2.03-.68-.76,2.38-1.49,4.67-2.23,6.96.23.08.46.15.69.23.19-1.05.38-2.09.57-3.14.92,4.01,1.01,7.87-1.63,11.27Z"/>
  <path class="cls-1" d="m116.49,282.13c-.46-.32-1.22-.86-2.63-1.84.58,2.58.99,4.44,1.41,6.3-4.77-10.65-8.5-21.62-10.04-33.98,2.66,3.48,4.74,6.4,4.84,10.49.04,1.85,1.01,3.69,1.65,5.5.8,2.3,1.71,4.55,2.52,6.84.79,2.22,1.51,4.47,2.26,6.69Z"/>
  <path class="cls-1" d="m108.03,235.17c-5.65-3.17-6.25-5.04-3.97-10.58.86-2.09,1.23-4.37,2.05-6.48.25-.64,1.26-1,1.91-1.48.33.73.95,1.46.93,2.18-.12,3.8-.41,7.6-.64,11.4-.1,1.6-.19,3.21-.29,4.97Z"/>
  <path class="cls-1" d="m197.96,374.29c4.34,4.38,8.68,8.77,13.02,13.15,2.58,2.68,5.15,5.35,7.73,8.03l-.74.71c-14.07-14.53-29.33-27.91-41.58-44.21,7.19,7.44,14.38,14.88,21.58,22.31Z"/>
  <path class="cls-1" d="m82.14,326.38c-3.83-3.68-7.78-7.01-13.14-7.81-.29.42-.58.83-.88,1.25,2.83,2.13,5.66,4.25,8.48,6.38-3.76-1.99-8.66-2.65-9.79-7.83-.1-.44-1.47-.81-2.27-.87-2.27-.17-4.7.3-6.79-.36-1.73-.55-3.05-2.36-4.2-4.19,2.31.91,4.61,1.87,6.94,2.7,1.01.36,2.91.88,3.06.61,1.28-2.39,2.19-.4,3.33.03,1.6.6,3.32.92,4.99,1.35,4.81,1.23,7.36,5.18,10.25,8.76Z"/>
  <path class="cls-1" d="m339.25,237.94c-1.28-5.08-3.09-11.15-4.27-17.34-.71-3.75-.57-7.68-.59-11.53-.01-2.79.34-5.59.53-8.39.3-.05.6-.11.9-.16.23,1.75.58,3.5.66,5.25.32,6.53-.11,13.18,1.04,19.55.86,4.75,2.07,9.32,1.72,12.61Z"/>
  <path class="cls-1" d="m259.46,539.16c-2.67,3.04-5.35,6.08-8.18,9.31,3.87-6.34,7.58-12.44,11.39-18.68,2.13,7.5-1.06,13.2-6.27,18.59,1.43-3.06,2.73-5.82,4.03-8.59-.32-.21-.64-.42-.96-.63Z"/>
  <path class="cls-1" d="m442.03,526.03c-11.71,13.24-22.36,27.21-31.31,42.46,1.98-6.33,19.36-29.89,31.31-42.46Z"/>
  <path class="cls-1" d="m28.67,318.13c5.86-1.94,11.66-4.15,17.63-5.65,1.62-.41,3.78,1.34,5.64,2.31-3.02.13-5.45,3.21-8.87,1.31-.76-.42-2.38.71-3.84.79.99-.63,1.98-1.27,2.97-1.9-.04-.11-.08-.22-.12-.33-4.3,1.61-8.6,3.23-12.9,4.84-.18-.46-.35-.91-.53-1.37Z"/>
  <path class="cls-1" d="m321.82,350.12c1.79,2.05,3.23,3.54,4.45,5.19.36.49.39,1.62.07,2.14-1.94,3.17-4.03,6.25-5.67,8.75.34-4.77.72-10.05,1.15-16.09Z"/>
  <path class="cls-1" d="m189.08,438.51c-1.73-7.03-3.32-14.1-5.25-21.07-1.43-5.15-3.33-10.17-5-15.25-.16-.49-.18-1.03.32-1.72,2.32,6.11,4.65,12.22,6.94,18.25.27-.02.11.03.08-.01-.22-.31-.41-.64-.58-.92,1.14,6.97,2.27,13.89,3.41,20.81l.1-.08Z"/>
  <path class="cls-1" d="m311.85,100.67c-.97-.07-1.95-.13-3.2-.22,2.18,6.32,4.28,12.42,6.37,18.51-5.3-9.4-8.88-19.41-11.41-30.85,1.43,3.24,3.09,5.51,3.35,7.94.35,3.3,2.32,4.05,4.8,4.69l.09-.07Z"/>
  <path class="cls-1" d="m271.39,286.94c5.85-1.37,11.74-2.63,17.55-4.14,5.69-1.47,11.31-3.19,17.31-4.9-10.67,7.16-23.38,5.95-34.47,10.35-.13-.44-.26-.88-.39-1.31Z"/>
  <path class="cls-1" d="m96.47,264.83c0-5.24-.24-10.49.09-15.71.21-3.29-.37-5.74-3.53-7.18-.16-.07-.12-.53-.2-.8-.4-1.23-.81-2.45-1.16-3.49,2.16.42,5.83,4.69,6.05,7.46.03.33-.02.66-.02.99,0,6.26,0,12.52,0,18.78-.41-.02-.82-.03-1.23-.05Z"/>
  <path class="cls-1" d="m364.68,445.08c-2.86-10.22-5.58-19.94-8.3-29.66,3.85,9.43,7.82,18.83,8.3,29.66Z"/>
  <path class="cls-1" d="m148.15,272.58c-.78-.41-1.89-.62-2.29-1.26-3.29-5.29-6.47-10.64-9.62-16.01-.65-1.1-1.06-2.33-.96-3.85,4.46,6.78,8.93,13.57,13.39,20.35-.17.26-.35.52-.52.77Z"/>
  <path class="cls-1" d="m4.75,325.13c3.81-1.52,7.68-2.92,11.41-4.61,4.72-2.14,9.32-4.53,13.99-6.77.76-.37,1.65-.47,2.94-.82-.79,1.21-1.34,2.04-1.89,2.88-.12-.29-.25-.58-.37-.87-2.01.71-4.11,1.26-6.02,2.18-1.61.77-2.9,2.27-4.54,2.93-5.03,2.05-10.17,3.85-15.26,5.74-.08-.22-.17-.45-.25-.67Z"/>
  <path class="cls-1" d="m297.44,146.3c4.2-6.99,10.51-11.89,16.92-16.7.23.27.47.53.7.8-2.44,2.02-4.97,3.94-7.29,6.08-1.93,1.78-3.64,3.8-5.42,5.73-1.44,1.56-2.83,3.16-4.25,4.74-.22-.22-.44-.43-.67-.65Z"/>
  <path class="cls-1" d="m228.21,179.5c3.24-1.48,6.41-3.19,9.77-4.33,1.09-.37,2.72.67,4.05,1.2,3.25,1.28,6.47,2.64,9.7,3.96-.1.3-.2.6-.29.9-2.69-.83-5.68-1.16-8.02-2.58-4.51-2.73-8.51-1.83-12.64.48-.72.4-1.53.66-2.29.98-.09-.2-.18-.41-.27-.61Z"/>
  <path class="cls-1" d="m230.37,531.59c-2.35,2.8-2.64,5.02-.55,8.53,1.66,2.8.95,7.02,1.29,10.61l-.82.1c-.35-3.36-.69-6.73-1.04-10.09-.11,0-.21.02-.32.02v5.13c-.11,0-.21.02-.32.02-.33-1.91-.54-3.85-1-5.73-1.33-5.43-1.37-5.42,2.76-8.6Z"/>
  <path class="cls-1" d="m130.74,323.01c1.37,1.64,2.87,3.18,4.08,4.94,3.18,4.64,6.23,9.38,9.34,14.08-.29.2-.59.4-.88.6-2.88-4.24-5.82-8.44-8.6-12.75-1.43-2.22-2.58-4.62-3.86-6.94,0,0-.06.07-.06.07Z"/>
  <path class="cls-1" d="m248.58,581.59c-1.19-3.26-3.3-6.52-3.31-9.79-.02-3.59,1.9-7.18,2.98-10.77.39.14.78.28,1.17.42-.59,1.07-1.81,2.24-1.66,3.19.72,4.68-2.21,9.55.84,14.12.44.66,0,1.89-.03,2.87,0,.01.02-.04.02-.04Z"/>
  <path class="cls-1" d="m71.4,338.1c-7.49-3.24-15-6.47-22.46-9.79-.33-.15-.26-1.19-.23-1.05,4.94,2.06,10.19,4.19,15.37,6.45,2.64,1.15,5.18,2.54,7.76,3.82-.15.19-.3.38-.45.57Z"/>
  <path class="cls-1" d="m584.99,534.49c-.15-.36-.29-.72-.76-1.87,5.48,3.48,10.26,6.51,15.05,9.55-.17.27-.34.53-.52.8-4.8-2.35-10.01-4.02-13.6-8.37-.05-.03-.1-.07-.17-.11Z"/>
  <path class="cls-1" d="m247.52,187.66c3.38-.16,5.51.57,6.65,2.33-.72.31-1.49.53-2.13.94-.64.4-1.15,1-1.66,1.45-.18-1.24-.36-2.49-.65-4.47-3.81,4.33-6.84,7.79-9.88,11.24-.23-.19-.47-.38-.7-.57,2.09-2.37,4.25-4.67,6.24-7.12.92-1.14,1.49-2.57,2.21-3.87,0,0-.07.08-.07.08Z"/>
  <path class="cls-1" d="m231.5,2.37c.05-.81.1-1.56.15-2.37"/>
  <path class="cls-1" d="m381.1,437.29c-2.31,5.54-5,11.96-7.42,17.77-.36-6.27,3.28-14.7,7.42-17.77Z"/>
  <path class="cls-1" d="m164.88,367.01c-6.67-2.79-8.13-8.96-10.2-14.76-.37-1.03-1.09-1.92-1.65-2.88.26-.13.53-.27.79-.4,1.47,3.34,2.61,6.89,4.49,9.98,1.79,2.93,4.35,5.39,6.57,8.06Z"/>
  <path class="cls-1" d="m266.59,529.48c.37,3.04,1.46,6.2-1.34,8.74.09-3.21.19-6.41.22-9.6.04-4.46,0-8.93.52-13.41.2,4.76.4,9.52.6,14.28Z"/>
  <path class="cls-1" d="m324.08,534.49c5.21-6.23,10.42-12.46,15.63-18.69.24.19.47.39.71.58-5.17,6.3-10.34,12.6-15.51,18.9-.28-.26-.55-.52-.83-.78Z"/>
  <path class="cls-1" d="m450.76,527.38c5.06-6.86,9.71-13.17,14.36-19.48-3.22,7.31-7.62,13.78-14.36,19.48Z"/>
  <path class="cls-1" d="m215.44,187.74c-4.37,5.45-8.75,10.89-13.12,16.34l-1.03-.82c4.48-5.34,8.96-10.69,13.43-16.03.24.17.48.35.72.52Z"/>
  <path class="cls-1" d="m99.5,347.93c-.7,3.66,1.25,5.08,4.06,6.33,3.02,1.35,5.81,3.22,8.7,4.87-.17.3-.34.59-.52.89-5.31-3.02-10.62-6.04-15.94-9.06,2.59.5,3.35-.74,3.69-3.03Z"/>
  <path class="cls-1" d="m419.46,212.28c.27.16.54.33.81.49"/>
  <path class="cls-1" d="m175.64,387.28c-4.08-6.15-8.17-12.3-12.25-18.46.28-.18.55-.37.83-.55,4.08,6.13,8.15,12.26,12.23,18.4l-.81.61Z"/>
  <path class="cls-1" d="m67.98,647.18c6.78-2.71,13.55-5.42,20.33-8.13.11.27.21.53.32.8-6.78,2.7-13.56,5.41-20.34,8.11l-.31-.78Z"/>
  <path class="cls-1" d="m250.05,535.12c1.6-2.31,3.37-4.53,4.74-6.97.9-1.59,1.11-3.55,1.86-5.24.56-1.27,1.48-2.39,2.43-3.89-.14,7.29-5.08,11.42-9.03,16.1Z"/>
  <path class="cls-1" d="m381.67,625.25c4-6.02,8-12.04,12-18.06l.73.48c-3.99,6.07-7.98,12.14-11.97,18.2-.25-.21-.51-.42-.76-.62Z"/>
  <path class="cls-1" d="m254.47,504.87s-.13.13-.13.13c1.3.78,1.41.86.44,2.33-2.66,4.04-5.42,8.01-8.14,12.01-.86,1.27-1.74,2.53-3.15,3.53.9-1.55,1.78-3.13,2.72-4.66,2.74-4.46,5.5-8.9,8.26-13.35Z"/>
  <path class="cls-1" d="m239.61,579.38c-4.04,5.23-8.07,10.47-12.11,15.7-.26-.2-.52-.4-.78-.59,3.99-5.27,7.98-10.54,11.97-15.81.31.23.61.46.92.7Z"/>
  <path class="cls-1" d="m260.8,525.68c.92,6.51-4.9,8.33-8.06,11.99,2.71-4.02,5.42-8.05,8.06-11.99Z"/>
  <path class="cls-1" d="m354.58,500.32l-11.87,15.26c-.25-.19-.5-.38-.74-.57,3.9-5.13,7.79-10.27,11.69-15.4.31.24.62.47.93.71Z"/>
  <path class="cls-1" d="m243.54,461.52c.08,1.09.16,2.17.24,3.26-1.8,2.14-3.59,4.27-5.64,6.71.51-4.25,3.33-6.92,5.4-9.97Z"/>
  <path class="cls-1" d="m288.74,349.52v26.35c-.19,0-.38,0-.56,0v-26.35c.19,0,.38.01.56.02Z"/>
  <path class="cls-1" d="m190.47,560.67c-4.54-5.21-4.64-11.51-4.1-17.91.18,1.99.26,4.01.58,5.98.33,2.01.82,4.01,1.4,5.96.6,2.02,1.4,3.98,2.12,5.97Z"/>
  <path class="cls-1" d="m422.64,555.03c3.93-5.19,7.86-10.38,11.8-15.57.24.18.49.36.73.54-3.97,5.2-7.94,10.4-11.9,15.59-.21-.19-.41-.38-.62-.57Z"/>
  <path class="cls-1" d="m78.29,284.09c4.05,2.45,8.11,4.9,12.16,7.35-.22.36-.44.71-.66,1.07-3.97-2.5-7.94-5-11.91-7.5.14-.31.28-.62.42-.93Z"/>
  <path class="cls-1" d="m76.02,282.87c-3.16.78-5.93,1.41-8.66,2.16-3.63,1-7.24,2.1-11.02,2.53,4.87-1.56,9.7-3.24,14.62-4.62,1.53-.43,3.28-.07,5.07-.07Z"/>
  <path class="cls-1" d="m304.92,503.23c-3.19,4.6-6.37,9.21-9.56,13.81-.27-.18-.53-.36-.8-.55,3.22-4.58,6.43-9.16,9.65-13.73.24.16.47.31.71.47Z"/>
  <path class="cls-1" d="m204.9,235.87c3.76-4.37,7.52-8.73,11.28-13.1.23.19.45.38.68.58-3.76,4.34-7.51,8.69-11.27,13.03l-.69-.51Z"/>
  <path class="cls-1" d="m277.55,458.03c-3.53,4.72-7.07,9.44-10.6,14.16-.18-.12-.36-.24-.54-.37l10.36-14.33c.26.18.52.36.77.53Z"/>
  <path class="cls-1" d="m299.68,554.94l-11.45,12.41c-.21-.19-.42-.38-.62-.56,3.84-4.1,7.69-8.19,11.53-12.29.18.15.36.3.54.45Z"/>
  <path class="cls-1" d="m249.02,571.41c3.28-4.6,6.49-9.12,9.7-13.63.26.18.51.35.77.53-3.2,4.46-6.4,8.92-9.62,13.37-.03.05-.33-.1-.85-.27Z"/>
  <path class="cls-1" d="m234.39,591.12c2.29-3.25,4.59-6.51,6.92-9.83,1.37.77,1.52.88.22,2.55-2.07,2.67-4.36,5.17-6.55,7.74l-.59-.46Z"/>
  <path class="cls-1" d="m296.68,395.37c.28,5.07.55,10.14.83,15.21-.25.01-.49.02-.74.03l-1.07-15.21c.33-.01.65-.02.98-.03Z"/>
  <path class="cls-1" d="m130.81,322.94c-.89-.72-1.99-1.3-2.62-2.2-2.46-3.5-4.76-7.1-7.12-10.67.31-.2.62-.39.93-.59,2.91,4.51,5.83,9.01,8.74,13.52,0,0,.07-.07.07-.07Z"/>
  <path class="cls-1" d="m188.99,438.59c1.11,2.26,2.5,4.43,3.25,6.8.93,2.95,1.32,6.06,1.41,9.2-1.52-5.36-3.04-10.72-4.56-16.08,0,0-.1.08-.1.08Z"/>
  <path class="cls-1" d="m305.39,345.34c-.28-3.81-.57-7.61-.85-11.41-1.22.11-2.44.23-3.65.34-.09-.16-.18-.32-.27-.48,1.2-.56,2.41-1.11,4.37-2.02.29,4.97.54,9.32.8,13.67-.13-.03-.26-.07-.39-.1Z"/>
  <path class="cls-1" d="m387.67,435.68c-2.89,3.88-5.78,7.77-8.68,11.65l-.83-.63c2.93-3.83,5.86-7.66,8.8-11.48.24.15.47.31.71.46Z"/>
  <path class="cls-2" d="m120.36,353.5c-.74-.26-1.6-.35-2.2-.8-1.31-.97-2.48-2.12-3.72-3.22-.33-.63-.65-1.24-.97-1.84.4-.1,1-.44,1.17-.29,1.56,1.33,3.04,2.75,4.54,4.13.39.66.78,1.34,1.18,2.01Z"/>
  <path class="cls-1" d="m268.34,281.87l-9.51,11.08c-.27-.23-.53-.46-.8-.69,1.54-1.79,3.07-3.6,4.64-5.37,1.67-1.88,3.38-3.72,5.08-5.58.2.18.4.37.6.55Z"/>
  <path class="cls-1" d="m320.34,333.96c.93,3.75,1.87,7.5,2.8,11.25-.29.14-.59.28-.88.42-.61-.5-1.21-1-1.82-1.49l1-.16c-.11-1.67.03-3.4-.4-4.99-.43-1.59-1.41-3.02-2.16-4.52l1.45-.51Z"/>
  <path class="cls-1" d="m249.29,394.51c4.04-2.36,8.08-4.73,11.7-6.85-1.63,4.92-7.64,4.54-11.7,6.85Z"/>
  <path class="cls-1" d="m105.5,75.37c3.34-3.07,4.9-7.78,9.47-9.71-2.93,3.46-5.86,6.91-8.79,10.37-.23-.22-.45-.44-.68-.65Z"/>
  <path class="cls-1" d="m345.45,411.15c-3.19,4.31-6.38,8.61-9.57,12.92-.23-.17-.46-.34-.69-.52,3.25-4.26,6.49-8.53,9.74-12.79.17.13.35.26.52.39Z"/>
  <path class="cls-1" d="m311.54,102.13c.04-.2.18-.83.31-1.45,0,0-.09.08-.09.08,3.89.93,7.78,1.86,11.68,2.79l-.16.77"/>
  <path class="cls-1" d="m121.09,241.82c-1.27-.77-2.54-1.54-3.37-2.04v-5.82c1.26,2.45,2.45,4.75,3.63,7.05-.09.27-.17.54-.26.81Z"/>
  <path class="cls-1" d="m67.12,381.93c2.41,1.69,4.79,3.2,8,3.16,1.73-.02,3.46,1.04,6.06,1.9-4,.98-6.71-3.74-10.18-.2-1.29-1.67-2.56-3.3-3.82-4.94,0,0-.07.08-.07.08Z"/>
  <path class="cls-1" d="m407.79,385.94c-4.63.57-9.26,1.15-13.88,1.72-.02-.19-.05-.38-.07-.57,4.62-.66,9.23-1.31,13.85-1.97.04.27.07.55.11.82Z"/>
  <path class="cls-1" d="m333.09,386.18c-2.89,3.41-5.79,6.82-8.68,10.23-.23-.18-.45-.36-.68-.54,2.88-3.43,5.77-6.85,8.65-10.28.24.2.47.4.71.6Z"/>
  <path class="cls-1" d="m163.29,434.5c-2.44-3.63-4.89-7.25-7.33-10.88.37-.22.74-.45,1.1-.67,2.05,3.87,4.1,7.75,6.15,11.62,0,0,.07-.07.07-.07Z"/>
  <path class="cls-1" d="m204.8,489.41c-.02.1-.04.2-.07.32.5,2.43,1,4.87,1.5,7.3-.21.07-.41.13-.62.2-1.04-3.14-2.08-6.27-3.12-9.41.26-.15.52-.3.78-.45.51.68,1.03,1.36,1.54,2.04Z"/>
  <path class="cls-1" d="m334.1,509.59c2.47-3.51,4.95-7.02,7.42-10.53.23.16.46.32.69.48-2.5,3.49-4.99,6.98-7.49,10.48-.21-.14-.41-.29-.62-.43Z"/>
  <path class="cls-1" d="m425.89,387.03c-4.08-.76-8.17-1.51-12.25-2.27.1-.43.2-.86.31-1.28,3.95,1.21,7.9,2.42,11.87,3.62.02-.01.08-.06.08-.06Z"/>
  <path class="cls-1" d="m242.35,393.04c2.05-2.24,3.72-4.07,5.97-6.53-.06,3.36-4.36,4.24-2.23,7.5-1.03-.27-2.04-.53-3.74-.97Z"/>
  <path class="cls-1" d="m584.99,534.49c.07.04.13.07.17.11.22.4.45.79.67,1.19-.19.16-.37.31-.56.47-2.42-2.21-4.85-4.43-7.27-6.64.29-.32.58-.65.87-.97,2.04,1.95,4.08,3.9,6.12,5.86Z"/>
  <path class="cls-1" d="m323.74,540.56c-2.65,3.53-5.29,7.05-7.94,10.58l-.56-.41c2.59-3.54,5.18-7.08,7.78-10.63.24.15.48.3.72.45Z"/>
  <path class="cls-1" d="m149.52,490.17c.96-2.92-2.19-3.54-2.95-5.34l.64-.61c2.11,2.09,4.22,4.18,6.84,6.78-2.18-.4-3.51-.65-4.53-.84Z"/>
  <path class="cls-1" d="m119.68,364.28c3,2.68,5.99,5.37,8.99,8.05-.06.05-.12.11-.18.16-2.96-2.7-5.92-5.41-8.88-8.11.02-.03.05-.06.07-.1Z"/>
  <path class="cls-1" d="m296.87,524.45c1.18-3.34,2.35-6.67,3.52-10.01.32.12.64.23.95.35-1.2,3.39-2.41,6.78-3.61,10.17-.29-.17-.58-.34-.87-.51Z"/>
  <path class="cls-1" d="m339.81,522.7c-2.62,3.65-5.24,7.3-7.86,10.95-.23-.17-.47-.33-.7-.5,2.64-3.64,5.29-7.27,7.93-10.91.21.15.43.3.64.45Z"/>
  <path class="cls-1" d="m353.12,489.03c1.89-2.78,3.77-5.55,5.66-8.33.24.16.48.32.72.48-1.83,2.84-3.65,5.67-5.48,8.51-.3-.22-.6-.44-.9-.66Z"/>
  <path class="cls-1" d="m301.27,336.98v16.71c-.15,0-.3,0-.45,0v-16.77c.15.02.3.04.45.07Z"/>
  <path class="cls-1" d="m82.55,574.23c2.56-3.06,5.13-6.12,7.69-9.18.18.15.36.29.54.44-2.54,3.08-5.08,6.15-7.63,9.23-.2-.17-.4-.33-.6-.5Z"/>
  <path class="cls-1" d="m97.82,98.53c-4.03,1.5-8.07,3-12.1,4.5-.07-.19-.15-.38-.22-.57,4.01-1.56,8.02-3.13,12.03-4.69.1.25.2.51.3.76Z"/>
  <path class="cls-1" d="m245.2,439.32c2.27-3.37,4.55-6.75,6.82-10.12.21.14.41.28.62.41-2.24,3.4-4.48,6.79-6.73,10.19-.24-.16-.48-.32-.71-.48Z"/>
  <path class="cls-1" d="m294.35,379.34v-11.32c.16,0,.31.01.47.02v11.38c-.16-.03-.31-.05-.47-.08Z"/>
  <path class="cls-1" d="m83.72,342.76c2.71,1.65,5.42,3.31,8.14,4.96-3.53-.43-6.36-1.9-8.14-4.96Z"/>
  <path class="cls-1" d="m305.27,348.45v14.59h-.38v-14.6c.13,0,.25,0,.38,0Z"/>
  <path class="cls-1" d="m302.88,369.39v-15.2c.1,0,.21,0,.31,0v15.2h-.31Z"/>
  <path class="cls-1" d="m43.2,1.07c.21.19.42.39.63.58"/>
  <path class="cls-1" d="m300.51,558.32c2.11-2.55,4.21-5.1,6.32-7.65.25.21.5.41.75.62-2.12,2.58-4.23,5.17-6.35,7.75-.24-.24-.48-.48-.72-.72Z"/>
  <path class="cls-1" d="m60.78,289.93c3.81-1.19,7.62-2.39,11.43-3.58.09.28.17.56.26.84-3.82,1.15-7.65,2.3-11.47,3.46-.07-.24-.15-.48-.22-.71Z"/>
  <path class="cls-1" d="m445,530.36c2.02-2.4,4.04-4.79,6.06-7.19.25.2.5.4.74.6-2.03,2.36-4.06,4.71-6.09,7.07-.24-.16-.48-.32-.71-.48Z"/>
  <path class="cls-1" d="m404.11,588.02c-2.12,2.83-4.24,5.66-6.35,8.5-.22-.17-.45-.33-.67-.5,2.12-2.86,4.24-5.73,6.36-8.59.22.2.44.39.66.59Z"/>
  <path class="cls-1" d="m138.82,319.9c1.51-2.17,3.02-4.34,4.53-6.52l1.04.76c-1.63,2.09-3.27,4.18-4.9,6.28-.22-.17-.45-.35-.67-.52Z"/>
  <path class="cls-1" d="m102.02,635.37c-2.91-.44-5.21-.79-8.31-1.26,2.84-.61,4.88-1.05,6.51-1.4.37.54.69,1.02,1.8,2.66Z"/>
  <path class="cls-1" d="m133.29,505.83c-3.64,1.49-7.28,2.97-10.92,4.46-.1-.24-.2-.48-.3-.71,3.57-1.5,7.14-3.01,10.71-4.51.17.26.34.51.5.77Z"/>
  <path class="cls-1" d="m10.76,376.54c-3.59,1.17-7.17,2.35-10.76,3.52,3.3-2.03,6.59-4.06,10.69-3.43,0,0,.06-.08.06-.08Z"/>
  <path class="cls-1" d="m201.56,580.11c-1.98-2.22-3.97-4.44-5.75-6.43,4.06,1.16,5.88,3.14,5.69,6.49,0,0,.06-.06.06-.06Z"/>
  <path class="cls-1" d="m66.62,280.11c-2.76,1.5-5.53,3-8.29,4.5l-.34-.64c2.72-1.59,5.44-3.18,8.15-4.77.16.3.32.6.48.9Z"/>
  <path class="cls-1" d="m90.63,268.06c1.36,2.02,2.85,4.24,4.44,6.62-5.5-3.78-5.96-4.64-4.44-6.62Z"/>
  <path class="cls-1" d="m249.93,529.42l-6.21,8.01c-.21-.16-.43-.32-.64-.49l6.2-8c.22.16.44.32.65.48Z"/>
  <path class="cls-1" d="m298.4,493.36c-2.15,2.93-4.31,5.86-6.46,8.79l-.65-.47c2.12-2.95,4.24-5.89,6.37-8.84.25.17.5.35.75.52Z"/>
  <path class="cls-1" d="m216.31,175.83c1.96-2.76,3.92-5.53,5.88-8.29.21.14.42.29.63.43-1.98,2.8-3.95,5.6-5.93,8.4-.19-.18-.39-.36-.58-.54Z"/>
  <path class="cls-2" d="m491.65,591.07c1.1.36,2.19.73,3.66,1.21-.93,1.49-1.67,2.67-2.41,3.85.1.18.19.37.29.55,1.83-.95,3.67-1.9,5.52-2.86.02.12.1.67.05.34,2.38.61,4.35,1.12,6.31,1.62.01.16.02.32.03.48-.51.09-1.02.19-1.01.18.06,1.28.6,2.79.06,3.55-1.12,1.61-.52,2.64.2,4.04.44.86.66,2.48.17,3.06-3.52,4.15-3.14,6.33,1.27,8.34-1.54.86-4.08,1.48-4.99,3.04-.83,1.43.1,3.89.3,6.44-1.13,1.6-2.8,3.97-4.62,6.55,2.57,1.7,4.79,3.16,7.33,4.84-.34.23.02-.02.38-.26l-.06-.04c.78,1.02,1.56,2.04,2.33,3.07-3.68-1.62-8.11-.95-11.23-4.03-.45-.44-1.89.3-2.74.07-1.97-.55-3.87-1.36-6.38-2.28,1.45-2.24,2.75-4.26,4.06-6.28-.15-.12-.31-.23-.46-.35-1.49,1.9-2.98,3.8-4.36,5.56-2.05-.96-3.95-1.86-5.98-2.82.8-1.34,1.56-2.59,2.31-3.85-.12-.09-.24-.17-.35-.26-.92,1-1.85,2.01-3.54,3.85-.4-1.88-.65-3.05-.86-4.04-1.44,2.8-4.28,3.29-7.51,1.85-.65-.29-1-1.27-1.47-1.89-.81.07-1.97.16-3.59.3.81-1.73,1.34-2.85,1.86-3.96-1.66.82-2.45,3.87-5.09,1.23.53-1.1,1.08-2.26,1.76-3.68-1.89.52-2.38,4.31-5.31,1.77,1.6-2.44,3.25-4.97,4.91-7.5-.15-.11-.3-.22-.45-.34-2,2.61-4,5.21-5.78,7.55-5.28-2.49-1.64-5.48-.31-8.57-2.54,1.36-2.65,5.62-6.81,4.08,1.18-1.85,2.33-3.64,3.47-5.43-.18-.15-.35-.29-.53-.44-1.48,1.75-2.95,3.5-4.87,5.76-.32-1.89-.55-3.25-.77-4.54-.8,1.13-1.6,2.26-2.63,3.71-.56-2.31-1.03-4.25-1.42-5.88-.78-.19-1.45-.35-1.89-.46-.6,1.04-1.38,2.37-2.28,3.93-3.01-2.9-5.67-5.66-8.55-8.17-1.48-1.29-1.35-2.29-.21-3.53.08-.15.15-.31.22-.47,4.19-5.1,8.31-10.27,12.63-15.26,1.5-1.73,3.51-3.02,5.28-4.5.23.25.47.5.7.75-.53,1.03-1.06,2.06-1.59,3.09.12.13.25.26.37.38,2.71-1.93,5.42-3.86,8.42-6-1.7,2.56-3.22,4.87-4.75,7.18.14.11.27.22.41.33,2.38-2.68,4.76-5.36,7.8-8.77v14.73c.43-1.68.48-3.57,1.38-4.85.63-.9,2.44-.96,3.83-1.43-.23,6.99-5.17,11.13-8.28,16.2-1.13,1.83-2.72,3.37-3.95,5.17,7.18-4.83,9.29-13.83,16-19.87-.46,2.21-.55,4.03-1.25,5.58-.79,1.77-2.12,3.3-2.78,5.29,2.59-3.23,5.17-6.46,7.93-9.9,1.08,2-3.41,3.57.07,5.36,1.32-1.47,2.62-2.91,3.92-4.35l.64.43c-1.28,2.06-2.57,4.12-3.85,6.18.09.1.19.19.28.29,3.03-2.79,6.06-5.58,9.38-8.63-1.04,1.79-1.93,3.3-3.05,5.22,1.09-.37,1.62-.55,2.69-.92-1.74,2.62-3.16,4.75-4.58,6.88,2.86-1.72,3.13-6.59,7.88-5.71-.75,1.4-1.51,2.83-2.28,4.27.14.12.27.24.41.36,1.19-1.43,2.23-3.04,3.62-4.22,1.22-1.03,2.84-1.59,4.28-2.36-1.85,2.93-3.69,5.86-5.53,8.79,2.03-1.89,3.87-3.9,5.5-6.07.46-.61.29-1.68.41-2.54Zm2.28,13.33c.19.16.38.33.57.49,2.21-2.96,4.43-5.92,6.64-8.88-.15-.26-.3-.52-.46-.78-1.48.68-2.96,1.36-4.44,2.04.12.28.25.55.38.83l1.63-1.3.46.38c-1.59,2.41-3.18,4.81-4.77,7.22Zm-51.2-13.59c-.28-.21-.57-.42-.85-.62-2.1,3.29-4.19,6.58-6.29,9.87.22.14.43.27.65.41,2.16-3.22,4.32-6.44,6.49-9.66Z"/>
  <path class="cls-2" d="m429.71,599.98c-.07.16-.15.32-.22.47-1.19.36-2.66-.92-2.33-2.28,1.61-6.7,1.91-13.89,6.71-19.44,1.76-2.03,3.95-3.68,5.94-5.51.25.23.5.45.75.68l-6.99,10.26c.24.16.47.31.71.47,1.63-2.28,3.27-4.56,5.2-7.26.14,2.02.26,3.59.4,5.58,1.13-1.3,2.11-2.43,3.09-3.57.18.08.36.17.54.25-.49,1.1-.8,2.34-1.52,3.27-3.02,3.92-6.25,7.69-9.23,11.64-1.24,1.65-2.04,3.62-3.05,5.44Z"/>
  <path class="cls-2" d="m558.48,638.04c.04-2.41,2.25-4.54,4.76-4.57,4.27-.05,9.71,5.03,9.65,9.02-.03,1.9-3.26,5.01-5.15,4.95-4.91-.16-9.32-4.64-9.25-9.4Z"/>
  <path class="cls-2" d="m535.34,622.76c1.48-.92,2.96-1.84,4.81-2.99v3.43c1.01-1.57,1.58-2.46,2.16-3.35l.54.44c-.52,1.01-1.05,2.02-2,3.85,1.22-1.03,1.74-1.46,2.26-1.9.13.08.25.16.38.24-.46.91-.92,1.83-1.33,2.66,1.03.53,2.12,1.08,3.21,1.65.12-.43.27-.94.41-1.45.26-.04.53-.08.79-.12,0,.9.3,1.95-.05,2.69-1.23,2.58-3.73,2.88-6.22,3.06,0,0,.18.04.18.04-.77-.3-1.52-.73-2.32-.87-1.24-.22-2.57-.04-3.75-.4-4.17-1.27-4.15-1.33-3.04-5.8,4.38-.8,2.16,3.27,4.04,5.41v-6.63l-.06.04Z"/>
  <path class="cls-2" d="m540.47,631.02s-.18-.04-.18-.04c4.88,1.84,5.08,2.4,2.55,6.86-.21.37-.31.81-.42,1.23q-.79,2.97-4.06,1.76c.26-.79.52-1.58.85-2.56-.38.23-.69.33-.85.54-1.24,1.66-2.46,3.34-3.68,5.02-1.77,2.46-4.16,1.45-5.1-.12-.9-1.5-.28-3.9-.33-5.91.74-.02,1.62-.28,2.18.02.51.28,1.01,1.25.91,1.81-.19,1.08-.81,2.08-1.25,3.11-.33-.37-.67-.74-1-1.11,2.5-1.71,5.02-3.39,7.48-5.16.33-.24.55-1.12.37-1.47-1.48-2.86.6-3.35,2.54-3.97Z"/>
  <path class="cls-2" d="m504.21,636.06c.31-.11.78-.12.9-.34,1.02-1.77,1.98-3.57,3.25-5.91.32,7.67,4.89,10.78,10.38,13.25,1.46.66,2.66,1.89,4,2.86,0,0-.04-.04-.03-.03-2.54.49-4.38-.44-6.75-1.73-4.28-2.33-7.74-5.61-11.8-8.14-.01,0,.05.04.05.04Z"/>
  <path class="cls-2" d="m498.55,631.46c.87-3.53,3.46-6.02,6.55-6.25.54-.04,1.11.33,1.67.51-.2.42-.37.86-.6,1.26-.12.2-.51.46-.51.47,2.14,2.61-.15,4.49-1.67,5.41-1.08.65-3.31-.58-5.02-.98-.09-.02-.16-.15-.42-.42Z"/>
  <path class="cls-2" d="m550.86,630.4c3.58.91,3.91,1.86,2,4.76-.43.66-.15,1.79-.19,2.69-2.02-.06-4.79,1.19-5.48-2.35-.17-.87.01-1.8.03-2.71.78.06,1.57.13,2.14.18.5-.83,1.05-1.75,1.59-2.66l-.09.09Z"/>
  <path class="cls-2" d="m504.4,616.66c.97,1.38,2.33,2.66,2.74,4.2.19.72-1.39,2.68-2.27,2.75-1.91.16-3.86-.85-3.68-3.2.1-1.24,1.18-2.4,1.82-3.59.46-.05.93-.1,1.39-.15Z"/>
  <path class="cls-2" d="m507.02,615.39c-1.68-1.94-2.98-3.01-3.59-4.38-.2-.46,1.84-2.56,2.03-2.45,1.45.83,2.85,1.89,3.88,3.19.22.28-1.12,1.81-2.32,3.65Z"/>
  <path class="cls-2" d="m506.66,598.34c2.02,1.6,5.16,1.99,4.17,5.21-.67,2.17-2.64,1.6-4.1.64-2.71-1.78-1.07-3.63-.07-5.85Z"/>
  <path class="cls-2" d="m555.66,649.94c.24-3.66.47-7.32.71-10.98.28,0,.56-.02.85-.02.15,1.57.3,3.14.46,4.79.37.41,1.66,1.29,1.53,1.77-.49,1.74-1.45,3.34-2.24,5l-1.3-.55Z"/>
  <path class="cls-2" d="m566.63,623.91c.67,1.61,1.1,2.56,1.46,3.52.35.92.64,1.86.95,2.79-.72.05-1.78.42-2.09.08-.89-.96-1.75-2.13-2.06-3.36-.16-.64.86-1.58,1.73-3.04Z"/>
  <path class="cls-2" d="m519,623.3c-2.89-.51-4.51-1.64-3.07-4.66,3.8-.04,4.6,1.1,3.07,4.66Z"/>
  <path class="cls-2" d="m530.36,634.5c1.68-.1,3.36-.22,5.03-.19.07,0,.12,1.5.17,2.3-1.73-.12-3.47-.23-5.2-.35,0-.59,0-1.18,0-1.77Z"/>
  <path class="cls-2" d="m550.58,618.01c1.23,1.38,2.46,2.75,4.18,4.68-1.37.36-2.54.91-2.71.68-1.05-1.38-1.88-2.92-2.78-4.41.44-.31.88-.63,1.31-.94Z"/>
  <path class="cls-1" d="m491.65,591.07c-.12.86.04,1.93-.41,2.54-1.63,2.17-3.47,4.18-5.5,6.07,1.84-2.93,3.68-5.86,5.53-8.79.11.07.24.13.38.19Z"/>
  <path class="cls-2" d="m550.95,630.32c-1.71.44-3.42.88-5.25,1.35.3-2.64,2.42-3.89,4.57-3.99,2.44-.11.75,1.7.59,2.73,0,0,.09-.09.09-.09Z"/>
  <path class="cls-2" d="m518.5,634.19c-1.37.7-2.44,1.63-2.9,1.39-.8-.41-1.36-1.51-1.69-2.43-.08-.22,1.34-1.42,1.75-1.27.89.32,1.57,1.21,2.84,2.31Z"/>
  <path class="cls-2" d="m535.4,622.72c-1.62-.08-3.25-.16-5.39-.26.79-1.66,1.21-2.54,1.95-4.1,1.3,1.71,2.33,3.06,3.37,4.41.01-.01.07-.05.07-.05Z"/>
  <path class="cls-2" d="m584,637.69v-4.28c.76.26,2.17.54,2.16.78-.04,1.24-.43,2.47-.7,3.71-.49-.07-.97-.13-1.46-.2Z"/>
  <path class="cls-2" d="m537.1,614.64c-1.27.8-2.01,1.5-2.86,1.67-.34.07-1.41-1.25-1.28-1.61.32-.86,1.16-1.53,1.79-2.27.62.59,1.24,1.18,2.34,2.21Z"/>
  <path class="cls-2" d="m520.02,611.55c-.86-1.42-1.68-2.21-1.52-2.64.32-.9,1.17-1.61,1.79-2.4.47.57,1.36,1.18,1.31,1.7-.08.87-.76,1.7-1.59,3.33Z"/>
  <path class="cls-2" d="m120.36,353.5c-.39-.67-.79-1.35-1.18-2.01-1.84-2.77-3.68-5.55-5.63-8.49.64.22,1.11.38,2.12.72-1.33-1.85-2.39-3.31-3.45-4.78,2.15,2.63,6.73,3.54,5.86,8.36-.05.27.49.66.78.97,6,6.51,12.06,12.97,17.96,19.57.93,1.04,1.13,2.72,1.85,4.58-1.58-1.2-2.57-1.82-3.39-2.62-4.5-4.38-9-8.77-13.4-13.25-.76-.77-1.03-2.03-1.52-3.06Z"/>
  <path class="cls-2" d="m452.17,430.44c1.53-2.18,2.65-3.77,4.09-5.81,3.58,2.29,7.11,4.24,10.26,6.68,2.58,2,4.74,4.62,4.47,8.24-.06.78-1,1.49-1.54,2.23-.55-.59-1.13-1.15-1.65-1.77-2.88-3.4-5.69-6.86-8.76-10.07-.18-.19-2.76-2.15-3.98.31-.17.34-1.48.12-2.9.18Z"/>
  <path class="cls-2" d="m73.51,292.59c3.09-2.69,5.33-1.2,7.11.04,3.96,2.76,7.54,6.05,11.48,8.85,2.61,1.86,5.63,3.14,8.35,4.85,1.57.99,2.99,2.25,4.33,3.54.42.4.35,1.3.63,2.48-10.9-6.75-21.14-13.09-31.9-19.76Z"/>
  <path class="cls-2" d="m118.84,322.92c-1.69-1.33-3.41-2.62-5.02-4.03-.18-.15.08-1.26.38-1.4.5-.23,1.29-.22,1.78.03.86.45,1.59,1.15,1.92,2.33-.4-.16-.81-.31-1.76-.68,1.05,1.52,1.84,2.68,2.63,3.83l.08-.08Z"/>
  <path class="cls-2" d="m118.76,323c1.34,1.52,2.69,3.04,4.04,4.57-.14.15.16-.17.46-.5.25,1.05.5,2.1.75,3.16l-1.27.51c-1.3-2.6-2.61-5.21-3.91-7.82,0,0-.08.08-.08.08Z"/>
  <path class="cls-2" d="m340.18,194.77c-5.94.67-7.04-.27-7.49-6.37,4.96.09,15.73,4.46,16.67,6.99,1.15-.91,2.13-1.97,3.35-2.55.68-.32,1.74.14,2.63.25-.23.82-.27,2.2-.74,2.37-1.52.54-3.29,1.1-4.79.81-4.36-.85-8.63-2.12-13.12-2.49,1.13.35,2.26.7,3.4,1.04l.1-.05Z"/>
  <path class="cls-2" d="m332.04,183.44c5.3,1.37,10.61,2.66,15.87,4.17,1.1.32,1.95,1.47,2.92,2.24-.69.54-1.5,1.65-2.04,1.53-3.74-.84-7.42-1.93-11.11-2.97-1.05-.29-2.16-.54-3.07-1.09-1.25-.74-2.34-1.74-3.49-2.63.31-.42.63-.84.94-1.26Z"/>
  <path class="cls-2" d="m340.07,194.82c2.86.77,5.82,1.28,8.55,2.38,2.14.86,4,2.43,5.99,3.69-.24.52-.48,1.05-.72,1.57-6.24-1.97-12.48-3.95-18.72-5.92.03-.25.05-.49.08-.74,1.64-.34,3.27-.69,4.92-1.03,0,0-.1.05-.1.05Z"/>
  <path class="cls-1" d="m493.93,604.4c1.59-2.41,3.18-4.81,4.77-7.22l-.46-.38-1.63,1.3c-.13-.28-.25-.55-.38-.83,1.48-.68,2.96-1.36,4.44-2.04.15.26.3.52.46.78-2.21,2.96-4.43,5.92-6.64,8.88-.19-.16-.38-.33-.57-.49Z"/>
  <path class="cls-1" d="m442.73,590.81c-2.16,3.22-4.32,6.44-6.49,9.66-.22-.14-.43-.27-.65-.41,2.1-3.29,4.19-6.58,6.29-9.87.28.21.57.42.85.62Z"/>
</svg>