<?xml version="1.0" encoding="utf-8"?>
<!-- Generator: Adobe Illustrator 28.0.0, SVG Export Plug-In . SVG Version: 6.00 Build 0)  -->
<svg version="1.1" id="Layer_1" xmlns="http://www.w3.org/2000/svg" xmlns:xlink="http://www.w3.org/1999/xlink" x="0px" y="0px"
	 viewBox="0 0 371.8 427.8" style="enable-background:new 0 0 371.8 427.8;" xml:space="preserve">
<style type="text/css">
	.st0{fill:#5BC9F4;}
</style>
<path class="st0" d="M366,100.8c-6.8-3.5-13.3-7.6-19.9-11.4c-40.4-23.2-80.6-46.7-121-69.8C212.6,12.4,201.2,3.4,186.9,0h-2
	c-4,1.4-8.3,1.8-12.1,4c-28.1,16.6-56.4,32.9-84.4,49.5c-27.2,16.1-54.5,32-81.2,49c-3,1.9-5.6,4.1-7.1,7.4v211.9
	c1.4,2.2,2.6,4.5,5.2,5.9c8.6,4.8,17,9.8,25.5,14.7c38.1,21.9,75.9,44.1,114.1,65.9c12.4,7.1,23.8,16.2,38.1,19.5h5
	c3.8-1.1,7.8-1.5,11.4-3.6c19.2-11,38.2-22.2,57.4-33.2c35.7-20.6,71.3-41.4,107.1-61.7c4.3-2.5,7.4-5.3,8-10.4V109.9
	C371,106.2,369.8,102.8,366,100.8z M334.7,308.3c-47.7,27.4-95.4,55-143,82.6c-4.2,2.5-7.7,2.5-12,0
	c-47.7-27.7-95.5-55.4-143.4-82.9c-4.7-2.7-6.5-5.8-6.4-11.1c0.1-54.9,0.2-109.9,0-164.8c0-5.8,2-9.1,7-11.9
	C84,93.2,131.1,65.9,178.2,38.7c7.8-4.5,8.9-4.5,16,1c27.3,21.1,56.2,39.8,86.7,56c16.5,8.7,33.3,16.6,50.6,23.6
	c9.2,3.7,9.9,4.8,9.9,14.8c0,26.8,0,53.6,0,80.4c0,27.5-0.1,55,0.1,82.4C341.5,302.4,339.6,305.6,334.7,308.3L334.7,308.3z"/>
<path class="st0" d="M313.6,132.2c-35.7-20.4-71.2-41-106.8-61.5c-5.5-3.2-6-2.9-6,3.4c0,46.6,0,93.3,0,139.9c0,47,0,93.9,0,140.9
	c0,5.7,0.5,6,5.5,3.2c36.1-20.9,72.2-41.9,108.4-62.7c4-2.3,5.4-5.1,5.4-9.6c-0.1-21.8,0.1-43.6,0.2-65.4c0-5.5,0-11,0-16.5
	c0-2.6-0.7-4.3-4-4.2c-17.5,0.1-35,0.1-52.5,0c-3.1,0-4.1,1.1-4,4.1c0.2,7,0.2,14,0,21c-0.1,3.2,0.9,4.4,4.2,4.4
	c6.8-0.2,13.7,0.2,20.5-0.1c4.8-0.3,6,1.6,5.9,6.1c-0.2,11.2-0.3,22.3,0,33.5c0.1,4.6-1.6,7.3-5.5,9.5
	c-16.2,9.2-32.3,18.6-48.4,27.9c-5.4,3.1-5.8,2.9-5.8-3.1c0-59,0-117.9,0-176.9c0-6.2,0.4-6.4,6.1-3.2c14.7,8.4,29.4,16.9,44.2,25.2
	c6.5,3.6,10.9,8.1,9.7,16.2c-0.4,2.7,0.7,3.9,3.6,3.9c7.3-0.1,14.7-0.2,22,0c3.1,0.1,4.1-1.1,4.1-4c-0.1-6.7-0.4-13.4,0.1-20
	C320.9,138.3,318.6,135.1,313.6,132.2L313.6,132.2z"/>
<path class="st0" d="M165.4,70.4c-36.6,21.1-73.1,42.3-109.7,63.4c-3.1,1.8-4.5,4-4.5,7.6c0,48.8,0,97.6,0,146.4
	c0,3.2,1.2,5.2,4,6.8c6.7,3.7,13.2,7.7,19.9,11.5c5.6,3.2,6,3,6-3.3c0-22.8,0-45.6,0-68.4c0-2.4-0.2-4.6,3.4-4.6
	c17.8,0.1,35.6,0.1,53.5,0c2.3,0,3.4,0.8,3.3,3.2c-0.1,1.3,0,2.7,0,4c0,33.8,0,67.6,0,101.4c0,3.8,0.8,6.6,4.5,8.6
	c6.2,3.3,12.1,7,18.1,10.5c7,4,7.2,3.9,7.2-4c0-46.3,0-92.6,0-138.9c0-47,0-93.9,0-140.9C170.9,68,170.3,67.5,165.4,70.4L165.4,70.4
	z M136.2,199c-16.8-0.2-33.6-0.2-50.4,0c-3.7,0-4.9-1-4.9-4.8c0.1-10.6-0.2-21.3-0.4-31.9c-0.1-5.4,1.7-10.1,6.5-12.6
	c18-9.3,35.3-19.9,54-30.3c0,9.9,0,18.9,0,27.8c0,15.6-0.1,31.3,0.1,46.9C141.1,197.8,140,199,136.2,199L136.2,199z"/>
</svg>
