<?xml version="1.0" encoding="utf-8"?>
<!-- Generator: Adobe Illustrator 28.0.0, SVG Export Plug-In . SVG Version: 6.00 Build 0)  -->
<svg version="1.1" id="Capa_1" xmlns="http://www.w3.org/2000/svg" xmlns:xlink="http://www.w3.org/1999/xlink" x="0px" y="0px"
	 viewBox="0 0 800 800" style="enable-background:new 0 0 800 800;" xml:space="preserve">
<style type="text/css">
	.st0{fill:#5BC9F4;}
</style>
<path class="st0" d="M784.4,637.2L608.6,461.5c-8-8-18.6-12.4-29.9-12.4c-4.8,0-9.4,0.8-13.8,2.3l-42.2-42.2
	c-6.3-6.3-14.7-9.8-23.6-9.8c-8.9,0-17.3,3.5-23.6,9.8l-11.1,11.1l-19.8-19.8l86.8-87.2c20.3,8.8,42.3,13,65.1,13c0,0,0,0,0,0
	c43.7,0,84.8-16.6,115.7-47.5c41.4-41.4,57.6-102,42.2-158.6c-1.9-7-8.5-12-15.7-12c-3.1,0-7.7,1-12,5.3c-0.6,0.6-59,58.6-78.4,77.9
	c-2.1,2.1-5.6,2.5-7.7,2.5c-1.5,0-2.3-0.2-2.3-0.2v0l-1.3-0.2c-24-2.2-52.8-6.6-60.1-10c-3.5-7.3-7.6-36.8-9.9-61.2v-0.3l-0.5-0.7
	c-0.1-1.1-0.7-6.6,4.1-11.4c20.1-20.1,75.4-75.9,75.9-76.4c4.7-4.7,6.5-10.6,5-16.1C649.7,10.7,644,7,639.3,5.7
	C625.3,1.9,610.9,0,596.4,0c-43.7,0-84.8,17-115.7,47.9c-48.8,48.8-60.2,120.9-34.4,180.7l-86.8,86.8L210.9,166.9
	c-0.1-0.1-0.2-0.2-0.3-0.3c1.4-5.7,2-11.7,1.8-17.7c-0.7-17.2-8.3-33.9-21.3-46.8l-52.9-52.9c-1.2-1.2-7.4-6.9-16.6-6.9
	c-4.3,0-10.7,1.3-16.9,7.5l-58,58c-6.7,6.7-9.1,15.4-6.6,23.7c1.7,5.6,5,9.2,6,10.2l52.7,52.7c13.8,13.8,31.4,21.3,49.6,21.3
	c0,0,0,0,0,0c5.1,0,10.1-0.6,15-1.8c0.1,0.1,0.2,0.2,0.3,0.3l148.6,148.6l-70.6,70.6c-3.2,3.2-5.9,6.7-8.3,10.4
	c-20.7-9.2-43.2-14.1-66.5-14.1c-43.7,0-84.8,17-115.7,47.9C9.7,518.9-6.4,579.7,9,636.3c1.9,7,8.5,12.1,15.7,12.1c0,0,0,0,0,0
	c3.1,0,7.7-0.9,12-5.2c0.6-0.6,59-58.6,78.4-77.9c2.1-2.1,5.9-2.4,7.9-2.4c1.5,0,2.5,0.2,2.5,0.2h0l1.1,0.2c24,2.2,53,6.6,60.3,10
	c3.5,7.3,8,36.8,10.1,61.2l0.2,1.1c0,0.1,0.8,6.2-4.3,11.3c-20.1,20.1-75.5,75.9-76,76.4c-4.7,4.7-6.5,10.6-5,16.1
	c1.8,6.7,7.5,10.4,12.2,11.7c14,3.8,28.4,5.7,42.9,5.7c43.7,0,84.8-17,115.7-47.9c30.9-30.9,47.9-72,47.9-115.7
	c0-23.3-4.9-45.8-14.1-66.5c3.7-2.4,7.2-5.1,10.4-8.3l70.6-70.6l19.8,19.8L406,478.7c-6.3,6.3-9.8,14.7-9.8,23.6
	c0,8.9,3.5,17.3,9.8,23.6l42.2,42.2c-1.5,4.4-2.3,9-2.3,13.8c0,11.3,4.4,22,12.4,29.9L634,787.6c8,8,18.6,12.4,29.9,12.4
	s22-4.4,29.9-12.4l90.6-90.6c8-8,12.4-18.6,12.4-29.9C796.8,655.8,792.4,645.2,784.4,637.2z"/>
</svg>
