<?xml version="1.0" encoding="UTF-8"?>
<svg id="Layer_1" data-name="Layer 1" xmlns="http://www.w3.org/2000/svg" width="441.94" height="568.55" viewBox="0 0 441.94 568.55">
  <defs>
    <style>
      .cls-1, .cls-2 {
        stroke-width: 0px;
      }

      .cls-2 {
        fill: #fff;
      }
    </style>
  </defs>
  <path class="cls-1" d="m78.56,305.54c-.66,0-1.28,0-1.9,0-4.08.03-7.65-1.26-10.79-3.9-5.26-4.44-5.4-4.53-6.98-11.21-.25-1.05-.34-2.25-.1-3.29,1.99-8.54,1.26-16.99-.51-25.45-.89-4.22-1.41-8.52-2.37-12.72-.87-3.81-1.8-7.65-3.26-11.25-1.8-4.45-2.61-9.04-3.17-13.72-1.02-8.52-.67-17.09-.63-25.64.01-2.06,1.08-4.13,1.73-6.17.34-1.05,1.3-1.43,2.28-1.48,2.23-.1,4.46-.17,6.69-.11,1.59.04,3.17.35,4.77.47,1.95.15,2.32-.36,1.92-2.28-.12-.57.02-1.23.16-1.82.28-1.21.19-2.24-1.06-2.85-1.78-.87-2.23-2.33-2-4.18.16-1.35.2-2.71.23-4.07.01-.79.05-1.65-.22-2.36-1.07-2.78-.67-5.51.13-8.24.44-1.52,1.01-3,1.53-4.52-.59.23-1.34.52-2.39.92-.19-.85-.39-1.5-.47-2.16-.54-4.83.4-9.53,1.28-14.23.31-1.63.86-3.21,1.29-4.82.12-.46.37-.97.27-1.39-.49-1.96.31-3.79.44-5.68.27-3.98.5-7.97.48-11.96-.01-3.82-.43-7.63-.48-11.45-.02-1.13.43-2.34.93-3.39.59-1.22,1.46-2.26,1.12-3.79-.1-.47.29-1.05.45-1.59.52-1.77.17-2.16-1.64-1.74-1.11.25-2.14.5-3.06-.56-1.17-1.36-1.38-2.02-.07-3.26,1.96-1.86,2.74-4.27,3.6-6.67.79-2.21.72-2.32-1.15-3.79-.02-.15-.1-.34-.05-.46,1.2-2.63,1.25-5.4,1.17-8.21-.04-1.19.11-2.41.38-3.57.19-.8.68-1.55,1.12-2.27.33-.54.81-.98,1.17-1.51,2.98-4.34,5.88-8.75,8.96-13.02,2.05-2.84,4.26-5.6,7.06-7.78.19-.15.34-.36.55-.45,4.38-2.03,7.03-5.92,10.12-9.34,2.79-3.09,6.34-5.13,10.09-6.75,4.17-1.81,8.45-3.37,12.69-4.99.89-.34,1.83-.63,2.77-.7,5.41-.39,9.82-2.89,13.95-6.2,1.92-1.53,4.05-2.88,6.27-3.93,4.68-2.23,9.47-4.23,14.23-6.28,2.41-1.04,4.79-2.22,7.3-2.9,5.11-1.37,10.38-1.89,15.66-1.8,1.88.03,3.42-.45,4.99-1.26,1.91-.99,3.76-2.11,5.99-2.31,1.29-.11,2.53-.23,3.74.4.48.25,1.19.61,1.57.43,2.91-1.38,6.02-.09,8.97-.79,2.32-.55,4.7-.88,7.02-1.42.83-.19,1.37-.08,1.88.56,1.45,1.83,3.43,2.23,5.6,1.9,2.3-.35,4.58-.61,6.87.1.51.16,1.27.28,1.62.02,1.43-1.06,2.58.12,3.78.39,1.03.24,1.93,1.01,2.92,1.46.39.18.9.17,1.34.15,2.46-.12,4.94-.1,7.29-1.04.21-.08.47-.01.88-.01.12.52.26,1.1.39,1.66,2.49-.14,4.72.32,6.95,1.34,1.02.47,2.43.08,3.89.08.12.45.29,1.11.46,1.73,1.32,1.06,2.67,1.2,4.25.59,1.1-.43,2.33-.52,3.64-.8.93,1.52,1.41,3.99,4.3,2.16.07,1.02.11,1.76.17,2.68,1.59.19,3.22.36,4.84.61.53.08,1.3.23,1.49.6.96,1.81,2.53,1.39,3.97,1.17,1.27-.19,2.39-.2,3.25.96-.32.66-.66,1.33-1.24,2.51,1.65-.51,2.82-.88,4.17-1.3.43,1.18,1.4,1.27,2.6,1.22,2.47-.1,3.2.48,4.12,2.8.36.9.81,1.5,1.78,2.03,2.09,1.13,3.94,2.69,5.92,4.02,1.19.8,2.41,1.55,3.68,2.23,1.58.84,3,1.8,3.81,3.49.16.33.48.68.81.81,2.36.91,4.72,1.83,7.12,2.61,1.59.52,1.89.84,1.6,2.53q-.41,2.36,1.88,3.01c.3.09.79.13.86.31.61,1.7,2.36,1.72,3.56,2.55.75.51,1.45,1.24,1.89,2.03,1.05,1.88,1.94,3.85,2.9,5.78.45.89,1.01,1.52,2.16,1.63,1.01.09,2.13.34,2.92.91.79.57,1.29,1.59,1.81,2.47,1.04,1.78,1.97,3.63,3.01,5.42.56.97,1.2,1.89,1.85,2.8.49.7,1.04,1.35,1.63,2.1-1.04,1.64-.15,3.24.78,4.7,1.81,2.85,2.99,5.96,4.22,9.07.73,1.84,1.6,3.63,2.49,5.65-.89,3.69-1.02,7.57.67,11.44,1.08,2.49,1.72,5.14,1.54,7.93-.05.86.24,1.73.3,2.6.06.94.06,1.89.05,2.83-.02,1.67-.2,3.35-.07,5,.3,3.74.75,7.47,1.14,11.2.1.95.2,1.9.32,2.85.34,2.76.63,5.44.25,8.3-.77,5.77-.96,11.61-1.38,17.42-.2,2.71-.38,5.42-.6,8.13-.02.29-.18.56-.42,1.25-.35-2.37-.81-4.3-.88-6.24-.09-2.62.19-5.26.19-7.89,0-1.91-.27-3.83-.25-5.74.03-2.79.29-5.59.32-8.38.02-2.07-.15-4.14-.28-6.21-.33-5.1-.66-10.2-1.06-15.3-.24-3.02-.5-6.06-.98-9.05-.25-1.55-1-3.01-1.54-4.51-.81-2.25-1.54-4.53-2.46-6.73-1.29-3.08-2.61-6.16-4.1-9.15-1.96-3.93-4.05-7.8-6.18-11.64-.64-1.16-1.59-2.16-2.4-3.24-3.97-5.32-7.99-10.61-12.69-15.31-2.66-2.65-5.34-5.31-8.23-7.7-2.6-2.15-5.79-3.35-8.97-4.44-3.17-1.09-6.35-2.19-9.5-3.35-.64-.24-1.23-.72-1.72-1.2-.56-.55-.98-1.24-1.6-2.06-4.57,2.7-8.79,5.72-12.29,9.86-.9-3.05-.84-4.12.5-6.33-2.3.72-4.23,1.32-6.63,2.07.59-.71.9-1.08,1.43-1.71-.83.1-1.43.09-1.98.26-1.15.34-2.3.7-3.4,1.17-1.74.74-3.34.82-4.93-.43-.92-.73-1.94-.86-3.11-.2-3.86,2.18-8.02,3.05-12.44,2.57-2.75-.3-5.42.2-8.09.67-.39.07-.81.29-1.17.22-3.45-.65-6.87-1.41-9.96-3.19-1.62-.94-2.03-2.36-1.61-4.11.26-1.08.57-2.16.07-3.22-2.25-.32-6.66.71-9.05,1.89-.96.48-2.08.66-3.15.9-1.7.38-3.51.47-5.11,1.08-3.95,1.53-8.14,1.6-12.21,2.35-3.62.66-7.23.95-10.96.66-6.05-.48-11.97.34-17.51,3.05-.71.35-1.47.6-2.51,1.02-.58-2.2,1.41-3.5,1.53-5.63-1.5.54-2.86,1.13-4.28,1.53-1.83.52-3.67,1.1-5.55,1.29-3.01.31-6.06.28-9.09.48-3.42.22-6.62-.62-9.89-1.48-4.51-1.18-8.85-.88-12.91,2.09-2.99,2.18-5.14,4.5-5.69,8.35-.66,4.66-1.78,9.25-2.69,13.87-.22,1.11.25,1.82,1.35,2.19,1.19.4,2.34.9,3.66,1.41-.29.74-.44,1.26-.7,1.72-.89,1.61-1.89,3.16-2.72,4.8-.33.66-.57,1.53-.45,2.23.21,1.23-.14,2.18-.78,3.15-.88,1.33-1.67,2.73-2.55,4.06-.75,1.14-.98,2.33-.6,3.65.41,1.46.82,2.93,1.15,4.41.24,1.09.39,2.19.54,3.3.49,3.74-.39,7.11-2.7,10.12-.72.94-1.21,2.05-1.88,3.21,1.27,1.34,2.4,2.67,3.69,3.84,1.18,1.07,1.62,2.25,1.45,3.82-.37,3.41-.71,6.83-.9,10.25-.13,2.39,0,4.79.04,7.18.01.72.23,1.44.19,2.14-.18,2.88,1.72,4.91,2.93,7.21.43.81,1.21.57,1.92.35,1.91-.59,3.84-1.11,5.73-1.76,8.32-2.89,16.38-1.84,24.28,1.6,1.32.57,2.62,1.19,3.93,1.78,1.74.78,3.6.88,5.42.55,2.59-.48,5.09-.07,7.62.34,5.44.88,10.88,1.76,16.32,2.63,1.66.26,3.32.54,4.98.72,3.09.32,6.19.73,9.29.79,2.32.04,4.38.79,6.47,1.56.42.16.83.75.97,1.22.79,2.68,1.58,5.36,2.21,8.08.39,1.69.98,3.15,2.24,4.4,1.13,1.12,2.09,2.42,3.12,3.64,1.43,1.7,1.4,3.87,1.74,5.89.1.56-.41,1.42-.9,1.86-1.36,1.21-2.78,2.38-4.3,3.37-1.79,1.15-3.72,2.1-5.59,3.13,2.74,2.44,4.31,5.37,5.91,8.28.15.28.22.6.36.89,1.57,3.11,1.78,6.21.97,9.7-.69,2.97-.63,6.22-.37,9.29.34,3.97,1.19,7.9,1.85,11.84.18,1.04.48,2.05,2.25,1.61-2.39,3.06-2.27,6.22-1.98,9.54.21,2.43.03,4.98-.49,7.36-1.88,8.58-.33,16.51,4.04,23.99.43.74,1.03,1.46,1.71,1.98,1.97,1.5,4.01,2.91,6.04,4.33.39.27.84.51,1.29.62,3.34.77,6.68,1.51,10.05,2.26,1.18,1.11,2.41,2.34,3.72,3.49,1.33,1.16,2.59,2.3,3.36,3.98.78,1.72,1.2,1.82,3.01.94,2.01-.98,3.97-2.06,5.92-3.16,1.58-.89,3.14-1.12,4.94-.06.46,1.81.4,3.81.12,5.76-.09.63-.83,1.37-1.46,1.69-1.42.72-2.92,1.33-4.45,1.74-.77.21-1.7-.05-2.53-.21-1.09-.21-2.15-.55-3.22-.83-1.48-.39-2.57-.09-3.82,1.05-1.35,1.24-3.28,1.85-5.18,2.85.38-.9.67-1.58,1.09-2.56-1.81.32-2.8,1.28-3.5,2.5-.8,1.38-1.54,2.81-2.12,4.3-.33.85-.42,1.86-.36,2.78.08,1.27.54,2.52.58,3.79.07,2.23.84,3.94,2.63,5.36,1.46,1.16,1.79,4.53.83,6.2-.4.69-1.03,1.28-1.3,2.01-1.76,4.7-5.8,5.24-9.95,5.48-1.91.11-3.84-.03-5.76-.1-2.06-.08-2.06-.11-2.61-2.04-.17-.61-.39-1.22-.64-1.8-.38-.87-1.03-1.37-2.03-1.44-1.27-.09-2.54-.29-3.81-.38-3.91-.29-7.14,1.46-10.2,3.56-2.04,1.4-2.4,1.51-4.52.31-.97-.55-1.96-1.09-2.92-1.67-.61-.37-1-.95-.53-1.6,1.09-1.54,2.26-3.03,3.55-4.75,1.4,1.35,2.53,2.44,3.69,3.55.69-1.82.25-3.98-1.22-5.37-2.84-2.69-5.65-5.45-8.67-7.92-4.02-3.29-6.5-7.38-7.45-12.45-.66-3.54-1.24-7.09-2.83-10.38-.34-.7-.71-1.39-1.15-2.25-.73.32-1.34.5-1.84.83-3.62,2.41-6.89,5.14-9.38,8.79-2.16,3.17-4.6,6.14-6.91,9.21-.34.44-.7.89-.91,1.4-1.88,4.33-3.76,8.65-5.58,13.01-.86,2.05-.8,2.08,1,3.57.74.61,1.48,1.23,2.25,1.8,1.31.96,1.83,2.08,1.22,3.73-.44,1.19-.6,2.48-.86,3.73-.03.14.07.3.13.51.17.1.38.33.56.32,2.85-.21,5.77-.11,8.38-1.6,3-1.71,6.22-2.54,9.67-2.07,2.35.32,3.81-.65,4.67-2.78.27-.67.71-1.26.95-1.94,1.04-3.01,3.51-4.14,6.24-4.97,1.93,2.99,1.68,6.62-.55,8.96-.22.23-.45.45-.67.68-3.28,3.33-3.4,4.62-.73,8.89,1.57-1.13,3.22-.7,4.97-.31,1.36.31,2.85.36,4.24.2,2.86-.32,5.54-.19,8.09,1.38,2.72,1.68,5.6,3.1,8.3,4.8,5.19,3.26,10.66,3.9,16.54,2.3,3.23-.88,6.54-1.49,9.81-2.24,1.47-.34,2.84-.02,4.21.5,3.21,1.22,6.41,2.5,9.68,3.54,1.96.62,4.05.8,6.07,1.24.9.2,1.77.57,2.94.96,1.33-1.29,2.96-2.6,4.27-4.18,3.26-3.93,7.56-4.32,11.96-4.02,2.96,4.12,5.75,8.09,8.66,11.97.71.96.9,1.8.53,2.87-.24.68-.37,1.4-.64,2.06-1.98,4.79-1.3,9.48.13,14.29.75,2.52.6,5.21-1.4,7.39-.96,1.04-1.88,2.12-3.21,3.63-.29-1.38-.58-2.25-.65-3.14-.39-4.88-2.16-9.27-4.47-13.54-2.21-4.09-5.46-7.27-8.76-10.39-1.46-1.38-3.28-2.02-5.46-.97-1.4.67-3.07.81-4.63,1.08-4.82.85-9.69.91-14.56,1.12-5.17.22-10.32,1.03-15.47,1.57-3.81.4-7.61.97-11.43,1.16-3.98.2-7.18,1.97-10.2,4.3-.83.64-.93,1.43-.45,2.34,1.05,2,2.17,3.87,4.27,5.02,4.79,2.63,9.69,4.91,15.1,5.94.47.09.95.17,1.41.29,2.23.6,4.03,1.62,4.02,4.32,0,.08.03.16.05.23.7,3.45.73,3.5-2.36,5.32-3.14,1.85-5.91,4.03-7.85,7.21-.99,1.62-2.23,3.11-3.48,4.54-.41.47-1.22.82-1.85.82-4.23-.02-8.46-.15-12.7-.22-1.03-.02-2.06.02-3.09.12-1.91.19-3.81.68-5.71.62-3.59-.12-6.58-1.76-7.98-5.1-1.34-3.21-3.31-5.3-6.7-6.15-2.67-.67-4.51-2.53-6.28-4.58-1.34-1.55-3.01-2.84-4.66-4.08-1.44-1.08-2.25-2.2-1.46-4.02.56-1.27.27-2.5-.3-3.7-.67-1.43-1.3-2.88-2.08-4.61-2.01.73-3.89,1.34-5.69,2.13-.48.21-.93.91-1.04,1.45-.36,1.8-.66,3.62-.78,5.44-.04.59.42,1.38.9,1.82,3.49,3.17,7.02,6.29,10.57,9.39,1.61,1.4,2.77,2.86,3,5.19.29,2.89.64,5.65-.56,8.46-1.16,2.73-1.02,5.46.76,7.98,2.07,2.94,2.78,6.4,3.85,9.75.76,2.39,2.21,4.57,3.48,6.77.27.47,1.03.7,1.61.93,1.71.69,3.41,1.38,5.16,1.96,2.44.82,4.71,1.92,6.92,3.25,3.22,1.93,6.54,3.68,9.87,5.4,1.04.54,2.24.95,3.4,1.08,2.85.32,5.73.44,8.59.66.71.05,1.55-.02,2.09.33,2.16,1.39,4.43,1.11,6.73.67.79-.15,1.46-.36,2.22.3.47.41,1.32.47,2.01.49,2.48.08,4.96,0,7.44.14,5.09.29,9.77-1.36,14.46-2.96.74-.25,1.48-.67,2.06-1.19,1.73-1.52,3.83-2.25,5.93-3.05,4.59-1.74,8.87-3.88,12.11-7.83,2.22-2.71,4.87-5.08,7.34-7.59.49-.5,1.06-.93,1.83-1.59.89.95,1.73,1.76,2.47,2.65,2.09,2.53,4.04,5.17,6.23,7.6,1.04,1.15,2.52,1.89,3.8,2.81-.26,1.84-.84,3.37-1.93,4.71-3.69,4.52-7.2,9.2-11.11,13.53-3.37,3.73-7.1,7.15-10.82,10.55-4.61,4.2-9.34,8.26-14.07,12.33-2.96,2.56-6.54,3.98-10.19,5.22-2.12.72-4.28,1.34-6.39,2.07-.8.27-1.53.74-2.2,1.49.66-.04,1.36.05,1.97-.15,4.78-1.56,9.66-2.89,14.27-4.86,3.57-1.53,6.87-3.76,10.12-5.93,4.86-3.25,9.48-6.83,13.35-11.26,1.36-1.56,2.72-3.17,3.8-4.92,4.12-6.71,9.31-12.57,14.31-18.6,9.25-11.15,16.44-23.58,21.87-37.02.87-2.15,1.92-4.22,2.9-6.32.09-.2.29-.36.5-.62,1.62.7,2.57,1.78,3.2,3.51.9,2.46,2.2,4.78,3.51,7.07,1.12,1.96,3.03,2.89,5.26,2.74,2.03-.14,3.54.65,4.94,1.97,1.17,1.1,2.49,2.04,3.54,3.23,1.31,1.48,2.56,3.06,3.56,4.76.96,1.65,1.47,3.55,2.34,5.25.9,1.77,1.9,3.5,3.03,5.13,1.99,2.89,4.05,5.75,6.2,8.53,4.56,5.9,10.46,10.03,17.32,12.86.59.24,1.22.42,1.84.52,4.58.71,9.17,1.42,13.76,2.08,2.27.32,2.17.33,2.66,2.57,1.32,6.12,4.36,11.06,9.99,14.23,3.17,1.79,6.49,2.64,10.1,2.51,1.52-.05,3.04-.06,4.56.04,1.27.08,2.6.12,3.78.55,3.75,1.36,7.58,2.53,10.89,4.92,1.41,1.01,3.07,1.71,4.7,2.37,2.19.88,4.17,2.01,5.77,3.77.7.77,1.44,1.53,2.28,2.12,2.49,1.76,3.77,4.26,4.67,7.07.99,3.07,1.6,6.2,1.61,9.42.03,6.48.02,12.96-.06,19.44-.02,1.91-.26,3.83-.53,5.73-.42,2.91-1.54,5.56-3.51,7.77-4.11,4.62-7.65,9.63-10.87,14.91-3.38,5.53-8.12,9.57-13.96,12.44-8.09,3.97-16.59,6.71-25.23,9.13-11.64,3.25-23.48,4.76-35.55,4.75-36.56-.03-73.12.04-109.68-.06-5.66-.02-11.34-.56-16.98-1.14-5.88-.6-11.72-1.6-17.58-2.33-2.93-.36-5.89-.67-8.84-.69-15.04-.08-30.08-.09-45.12-.04-5.38.02-10.68-.64-15.99-1.41-4.66-.68-9.37-1.09-14.07-1.45-9.64-.75-19.32-1-28.92-2.38-12.29-1.78-24.42-4.17-36.32-7.81-7.2-2.2-13.87-5.31-20.09-9.49-2.72-1.83-5.47-3.62-8.25-5.35-4.99-3.11-8.93-7.18-11.84-12.31-2.92-5.15-6.16-10.11-9-15.3-1.96-3.56-3.55-7.34-5.17-11.07-1.16-2.66-1.65-5.51-1.67-8.42-.02-2.98-.61-5.81-1.65-8.65-1.25-3.4-1.09-7.07-.87-10.68.23-3.91.59-7.82.62-11.73.08-12.8-.01-25.6.06-38.4.04-6.08-.02-12.18.56-18.22.67-7.01,3.54-13.22,8.41-18.43,3.43-3.68,7-7.24,9.83-11.45,3.69-5.5,6.15-11.56,8.34-17.76.48-1.36,1.02-2.69,1.48-4.06.52-1.54,1.59-2.5,3.16-2.53,4.28-.09,8.1-1.53,11.8-3.56,1.6-.88,3.46-1.28,5.09-2.11,1.55-.78,3.11-1.67,4.41-2.81,1.65-1.44,3.44-2.3,5.6-2.4,4.47-.21,8.94-.45,13.41-.58,2.36-.07,4.37-.67,5.93-2.58.86-1.05,1.21-2.14,1.3-3.49.4-5.7-.29-11.33-.88-16.97-.25-2.37-.47-4.74-.72-7.33Zm10.45-228.68c1.26-.26,1.86-1.1,2-2.32,1.83-1.11,2.92-2.73,3.35-4.81.67-.77,1.42-1.48,1.98-2.31,3.57-5.25,7.72-10,12.67-13.97,5.54-4.45,11.14-8.83,16.82-13.1,2.94-2.21,6.28-3.73,9.89-4.6-.88-.63-1.77-.41-2.72-.11-3.52,1.14-6.86,2.57-9.76,4.95-1.97,1.62-4.1,3.05-6.14,4.58-7.07,5.28-13.5,11.24-18.83,18.31-1.47,1.96-2.57,4.2-3.84,6.31-1.12,1.6-2.23,3.21-3.35,4.81-.67.77-1.34,1.54-2,2.32-.33.46-.65.91-.98,1.37.15.06.3.12.46.19.16-.54.31-1.08.47-1.62Zm15.35,161.69c-.11.59-.13,1.3-.36,1.93-.94,2.49-.15,4.52,1.55,6.36,3.59,3.88,7.95,5.1,13.04,3.79,3.23-.83,3.53-.71,5.12,2.2.23.42.45.85.62,1.3.53,1.39.32,2.6-.72,3.76-1.8,2.01-3.87,3.53-6.49,4.31-.79.24-1.55.77-2.18,1.33-1.19,1.06-2.31,2.21-3.37,3.4-.5.56-1.08,1.28-1.14,1.96-.13,1.5.05,3.02.11,4.53.02.62.16,1.25.07,1.84-.28,1.97.74,5.08,2.3,6.45.83.73,1.4,1.49,1.28,2.67-.19,2.01-1.26,3.97-.4,6.05.03.06,0,.17-.05.23-1.36,1.73-.05,2.95.79,4.28.43.67.91,1.33,1.22,2.06.93,2.25,2.74,3.68,4.58,5.1,2.08,1.6,4.19,3.15,6.23,4.8,1.18.95,2.11,1.09,3.12,0,.52-.56.75-1.37,1.14-2.06.38-.68.65-1.48,1.19-1.99,2.06-1.94,4.33-3.5,7.35-3.46.88.01,1.79.04,2.62-.19,1.82-.51,3.83-.84,5.34-1.86,3.32-2.25,5.97-5.18,7.93-8.81,4.48-8.27,10.1-15.73,17-22.16,1.92-1.79,2.64-3.68,1.78-6.2-.89-2.58-.68-5.14-.01-7.78.56-2.22.76-4.55.96-6.85.24-2.7.27-5.42.45-8.13.12-1.83.45-3.65.5-5.49.06-2.06-1.17-3.87-3.03-4-1.24-.09-2.69.42-3.78,1.09-3.74,2.3-7.53,4.57-10.55,7.84-1.15,1.24-2.43,1.54-4.09,1.32-1.8-.24-3.7-.34-5.49-.05-4.23.68-8.11-.76-11.93-1.95-3.86-1.2-7.44-3.28-11.18-4.89-1.68-.72-2.98-1.69-3.89-3.34-1.36-2.47-3.14-4.56-5.89-5.72-5.34-2.25-10.07-5.54-14.66-9.03-.89-.68-1.84-1.29-2.82-1.82-.99-.53-1.76-.23-2.12.75-.65,1.79-1.19,3.62-1.9,5.39-1.5,3.74-1.07,7.72-1.51,11.59-.13,1.13.5,1.97,1.27,2.72,1.71,1.68,3.59,3.23,5.05,5.11,1.29,1.67,2.47,2.59,4.5,1.41.04-.02.14.06.45.21Zm-42.31,38.93c-1.31,4.94-1.39,9.54-1.08,14.15.09,1.38,4.02,4.88,5.4,5.04.08,0,.16.01.24,0,1.42-.14,2.86-.23,4.27-.45.88-.14,1.78-.48,1.82-1.58.08-2.53.47-5.11-.84-7.49-.69-1.26-1.44-2.49-1.98-3.81-1.41-3.43-4.61-4.31-7.82-5.86Zm98.33-93.48c-8.94-3.47-21.05-1.54-28.31,4.12,2.14-.33,4.32-.69,6.5-1.01,5.19-.77,10.35-1.81,15.65-.75,1.91.38,3.91.25,6.02.37.05-1.07.1-1.92.14-2.72Zm-19.09,33.76c-2.83-.01-3.11.4-2.51,3.12.13.6,0,1.25.01,1.88,0,1.09.93,2.74,1.85,2.79,2.06.12,4.43.26,5.92-1.19,1.21-1.18,2.2-2.62,3.62-3.66.18-.13.14-.75,0-1.06-.08-.2-.53-.32-.82-.32-.3,0-.65.12-.89.3-1.74,1.3-3.17.66-4.38-.75-.83-.97-1.85-1.16-2.81-1.11Zm16.43-39.97c.04-.28.07-.56.11-.85-2.51-.03-4.21-.91-4.8-3.44-.23-.98-1.31-1.04-2.16-.34-.36.3-.76.68-.9,1.1-.83,2.45-2.72,3.37-5.07,3.72-.71.1-1.41.3-2.09.53-1.16.39-2.3.83-3.45,1.25.67.39,1.24.44,1.76.31,4.29-1.03,8.61-1.54,13.04-1.35,1.17.05,2.37-.6,3.56-.93Zm-11.02,26.88c0,.25,0,.5-.01.75,2.51.24,5.03.71,7.53.62,1.28-.05,2.24-.08,2.94,1.12,2.25-1.06,4.82-.43,7.21-2.03-2.67-.74-4.91-.91-7.22-.7-1.97.17-3.96.19-5.95.23-1.5.03-3,0-4.51,0Zm23.55-1.26c4.27.49,7.99.92,11.71,1.34-3.71-.84-7.21-3.46-11.71-1.34Zm43.77,150.44c4.53.28,8.94-.47,13.27-1.82-4.42.61-8.85,1.21-13.27,1.82Zm9.29,122.92c-4.76,1.24-5.26,1.48-6.1,2.78,2.77-.29,5.1-1.27,6.1-2.78Zm-71.83-256.01c2.53.78,3.41.19,3.4-2.13-1.26.79-2.33,1.46-3.4,2.13Zm72.64,124.12c-1.91.48-3.81.95-5.72,1.43,2.09.32,3.83-.12,5.72-1.43Zm-139.24,33.97c.07.02.14.05.22.07v-7.84c-.07,0-.14,0-.22,0v7.76Zm176.13-33.68c-.09-.18-.18-.36-.27-.53l-2.22,1.08.3.58c.73-.38,1.47-.76,2.2-1.13ZM62,194.67c-.13.11-.27.22-.4.32.41.64.76,1.35,1.84,1.33-.48-.55-.96-1.1-1.44-1.65ZM260.73,41.45l-.23-.48c-.28.2-.55.39-.83.59.06.1.12.21.19.31l.87-.42Zm19.61-2.26c.04.11.08.22.12.33.22-.03.46,0,.64-.1.18-.1.3-.32.45-.48l-.21-.23c-.33.16-.66.32-.99.48Zm-79.26,314.27c-.01-.1-.03-.21-.04-.31-.35.04-.71.08-1.06.12,0,.07.02.13.03.2h1.07Z"/>
  <path class="cls-1" d="m315.68,171.77c-.16.5-.32.98-.67,2.07,1.22-.84,1.97-1.35,2.78-1.9.7.13.55,1.59,1.7,1.17.7-.26,1.5-.57,2.23.47-3.37,1.68-6.62,3.33-9.9,4.9-2.01.97-4.06,1.79-6.31,2.17-2.97.5-5.9.38-8.81-.13-3.77-.67-7.29.4-10.87,1.16-.23.05-.55.09-.66.25-1.04,1.43-2.49,2.05-4.2,2.2-.07,0-.13.26-.3.65.65.24,1.26.62,1.91.69,4.35.43,8.41,1.55,12.23,3.84,2.37,1.42,5.21,2.03,7.67,3.33,2.09,1.11,3.95,2.68,5.88,4.09.5.37,1.03.86,1.27,1.42,1.21,2.85,3.53,4.92,5.16,7.47,1.1,1.72,1.97,3.59,2.98,5.46-.48.21-.71.41-.89.38-2.93-.48-5.49.69-8.05,1.81-.92.4-1.69.5-2.72.11-1.16-.44-2.49-.44-3.75-.57-3.24-.34-6.48-.65-9.89-.98.41-1.66,2.29-1.2,2.61-1.81.11-2.01-.12-3.5-1.35-4.86-1.57,1.32-3.25,2.54-4.71,3.99-2.79,2.75-6,3.44-9.69,2.44-1.08-.29-2.19-.47-3.28-.7-2.03-.44-4.09-.8-5.75-2.21-.17-.15-.42-.23-.65-.29-.13-.03-.29.05-.63.13.33.46.62.86.97,1.35-.65.17-1.23.33-1.8.48,0,.36-.1.69.02.8.45.42.91.94,1.46,1.12,2.2.72,4.45,1.28,6.65,1.99,2.26.73,4.35,1.8,6.4,3.01-.53,1.43-1.54,1.88-2.62,2.21-1.37.42-2.76.81-4.14,1.23-1.75.53-1.87.72-2.01,2.48-.19,2.31.13,4.45,1.78,6.25.58.64,1.03,1.4,1.75,2.39-.69-.07-1.11-.03-1.48-.15-4.37-1.41-8.38-3.51-12.17-6.09-1.98-1.34-4.09-2.5-6.2-3.63-1.76-.95-3.13-2.12-3.77-4.11-.97-3.04-2.15-6.01-3.07-9.07-.43-1.42-.46-2.96-.7-4.71-1.51.26-2.97.51-4.72.81-.97-1.64-2.14-3.35-3.01-5.21-.31-.66-.05-1.74.24-2.51,1.44-3.81,2.9-7.62,4.53-11.36.55-1.26.63-2.38.39-3.69-.75-4-1.66-8-2.02-12.04-.35-3.89.58-7.61,3.44-10.59,1.39-1.45,3.07-1.95,5.01-1.7,1.03.13,2.07.26,3.07.55,3.09.89,6.16.49,9.26.05,1.09-.16,2.24-.21,3.33-.08,2.62.31,5.23.68,7.85,0,.2-.05.44.08.85.17-1.47,2.1-4.52,2.16-5.8,4.86.71-.19,1.07-.26,1.42-.38,4.67-1.54,9.45-2.3,14.37-2.11,1.66.06,3.36-.29,4.75,1.01.15.14.46.16.69.15,2.46-.05,4.92-.09,7.38-.18,2.14-.08,4.28-.2,6.46-.05-3.07.98-6.13,1.91-9.43,1.95.52.12,1.03.26,1.56.37.55.11,1.1.23,1.65.26,4.89.31,9.79.6,15.18.93-4.48,3.2-9.31,4.59-13.92,6.49,4.12-.42,7.73-3.04,12.07-2.53-1.68.74-3.36,1.49-5.04,2.23.05.16.09.33.14.49,1.93.23,3.87-1.54,5.92-.14Zm-49.45,22.77c.08.19.17.38.25.58.77-.11,1.55-.2,2.32-.34,2.2-.4,4.4-.78,6.58-1.24,3.71-.78,7.38-.21,10.87.87,4.35,1.35,8.25,3.78,12.1,6.2,2.83,1.78,5.72,3.48,8.59,5.19.08.05.26-.1.41-.16.1-2.03-.67-3.66-2.16-5.04-3.19-2.96-6.71-5.39-10.72-7.09-.64-.27-1.49-.63-2.04-.42-1.36.52-2.34-.14-3.35-.73-3.57-2.08-7.3-2.62-11.24-1.24-1.13.4-2.24.83-3.37,1.22-1.58.53-3.16,1.09-4.78,1.49-.4.1-.94-.37-1.58-.66-.52.38-1.2.87-1.88,1.37Zm36.94-26.87c2.71.82,4.81.51,6.4-.89-2.38.07-4.49-.38-6.4.89Zm-47.5,40.09c1.83.87,4.72.61,6.67-.47-2.43-.32-4.57-.07-6.67.47Zm30.45-3.25c2.71-.9,3.59-1.93,3.81-4.7-1.41,1.74-2.49,3.07-3.81,4.7Zm-19.55-40.99c.4-.03.63,0,.66-.07.08-.2.09-.42.12-.64-.21.19-.41.37-.78.7Z"/>
  <path class="cls-1" d="m279.49,305.74c-1.88-.19-3.5-.16-5-.58-.91-.25-1.79-1.06-2.41-1.84-4.53-5.7-7.73-12.14-9.87-19.06-.79-2.56-.83-5.36-1.15-8.05-.19-1.59-.31-3.18-.4-4.78-.04-.67.1-1.34.21-2.64,2.91,2.85,6.06,4.63,7.81,7.74,3.02,5.36,5.79,10.85,8.72,16.26,1.84,3.4,2.67,6.99,2.36,10.84-.05.62-.16,1.24-.27,2.09Z"/>
  <path class="cls-1" d="m348.52,246.56c-1.15-.72-.83-1.39-.42-2.01.87-1.31,1.04-2.62.27-4.05-.26-.48-.26-1.09-.46-1.6-1.84-4.68-.59-8.92,1.84-12.97,1.07-1.78,2.21-3.51,3.37-5.23.46-.68,1.03-1.29,1.8-1.8.56,2.56-1.07,4.53-1.54,6.76-.49,2.34-.78,4.72-1.34,7.04-.56,2.32-1.58,4.54-1.97,6.88-.39,2.3-.5,4.64-1.54,6.98Z"/>
  <path class="cls-1" d="m287.76,330.32c1.74,1.51,3.31,2.75,4.71,4.15.57.57,1.03,1.46,1.13,2.25.18,1.49.11,3.03.03,4.54-.08,1.4-.55,1.79-2.01,1.69-1.19-.08-2.39-.23-3.53-.55-.51-.14-1.09-.73-1.26-1.23-.63-1.88-1.32-3.79-1.58-5.75-.27-2.04,1.15-3.5,2.52-5.1Z"/>
  <path class="cls-1" d="m348.41,185.42c1.57-4.3,1.72-8.25,1.94-12.18.21-3.91.45-7.81,1.13-11.72.08.6.26,1.2.23,1.79-.19,5.57-.37,11.14-.67,16.7-.09,1.55-.2,3.21-1.42,4.46-.21.21-.47.37-1.21.95Z"/>
  <path class="cls-1" d="m348.77,204.3c-.57-.12-1.04-.21-1.73-.36-.32-2.94-.19-5.85,2.28-8.2.55,1.52-.2,2.92-.29,4.36-.09,1.42-.18,2.85-.27,4.19Z"/>
  <path class="cls-1" d="m126.33,81.68c0-2.98.46-3.74,2.77-4.78-.35,1.87-1.38,3.13-2.77,4.78Z"/>
  <path class="cls-1" d="m351.86,208.57c-.47-.07-.95-.15-1.42-.22.01-.15.02-.31.03-.46h1.43c-.01.23-.02.45-.04.68Z"/>
  <path class="cls-1" d="m319.89,177.04c-.51.17-1.02.34-1.53.51l-.14-.34c.48-.22.97-.44,1.45-.66l.22.49Z"/>
  <path class="cls-1" d="m350.43,191.24c.05.13.15.27.12.38-.02.09-.21.13-.32.2-.05-.13-.15-.27-.12-.38.02-.09.21-.13.33-.2Z"/>
  <path class="cls-2" d="m104.36,238.55c-.32-.15-.41-.23-.45-.21-2.03,1.18-3.21.26-4.5-1.41-1.46-1.88-3.33-3.44-5.05-5.11-.77-.76-1.4-1.6-1.27-2.72.45-3.87.01-7.84,1.51-11.59.71-1.77,1.25-3.6,1.9-5.39.36-.99,1.13-1.29,2.12-.75.98.53,1.93,1.14,2.82,1.82,4.59,3.5,9.32,6.78,14.66,9.03,2.75,1.16,4.53,3.24,5.89,5.72.91,1.65,2.21,2.62,3.89,3.34,3.74,1.6,7.32,3.69,11.18,4.89,3.82,1.19,7.7,2.63,11.93,1.95,1.78-.29,3.68-.19,5.49.05,1.67.22,2.95-.07,4.09-1.32,3.02-3.27,6.81-5.54,10.55-7.84,1.09-.67,2.54-1.17,3.78-1.09,1.86.13,3.1,1.94,3.03,4-.05,1.83-.38,3.65-.5,5.49-.18,2.71-.22,5.43-.45,8.13-.2,2.3-.4,4.63-.96,6.85-.67,2.64-.88,5.2.01,7.78.87,2.52.14,4.41-1.78,6.2-6.9,6.43-12.52,13.89-17,22.16-1.96,3.62-4.61,6.55-7.93,8.81-1.51,1.02-3.52,1.35-5.34,1.86-.83.23-1.75.2-2.62.19-3.02-.04-5.29,1.52-7.35,3.46-.54.51-.82,1.31-1.19,1.99-.38.69-.62,1.5-1.14,2.06-1.01,1.09-1.94.95-3.12,0-2.04-1.65-4.15-3.2-6.23-4.8-1.84-1.42-3.65-2.85-4.58-5.1-.3-.73-.79-1.39-1.22-2.06-.84-1.32-2.14-2.55-.79-4.28.04-.06.07-.17.05-.23-.86-2.08.21-4.04.4-6.05.11-1.18-.45-1.94-1.28-2.67-1.55-1.37-2.58-4.48-2.3-6.45.09-.6-.05-1.23-.07-1.84-.06-1.51-.24-3.04-.11-4.53.06-.69.64-1.4,1.14-1.96,1.06-1.19,2.18-2.33,3.37-3.4.63-.56,1.38-1.1,2.18-1.33,2.62-.78,4.69-2.3,6.49-4.31,1.04-1.15,1.25-2.36.72-3.76-.17-.45-.39-.88-.62-1.3-1.59-2.91-1.88-3.03-5.12-2.2-5.09,1.31-9.45.09-13.04-3.79-1.7-1.84-2.49-3.87-1.55-6.36.24-.63.26-1.33.36-1.93Zm2.72-3.79c-1.01.11-1.44.6-1.05,1.63.35-.54.7-1.08,1.05-1.63Z"/>
  <path class="cls-2" d="m62.05,277.48c3.21,1.55,6.41,2.43,7.82,5.86.54,1.32,1.29,2.56,1.98,3.81,1.31,2.39.93,4.96.84,7.49-.04,1.1-.94,1.44-1.82,1.58-1.41.22-2.85.31-4.27.45-.08,0-.16,0-.24,0-1.38-.16-5.31-3.65-5.4-5.04-.31-4.61-.23-9.21,1.08-14.15Z"/>
  <path class="cls-2" d="m160.38,184c-.04.8-.08,1.65-.14,2.72-2.1-.11-4.11.01-6.02-.37-5.3-1.05-10.46-.02-15.65.75-2.18.33-4.36.68-6.5,1.01,7.26-5.65,19.37-7.59,28.31-4.12Zm-13.36.25c0,.21,0,.42,0,.64,2.88.17,5.75.37,8.63.47.49.02.99-.45,1.48-.7-.05-.16-.1-.33-.15-.49-3.32.16-6.65-1.17-9.97.09Z"/>
  <path class="cls-2" d="m141.29,217.76c.96-.05,1.98.13,2.81,1.11,1.21,1.42,2.64,2.06,4.38.75.24-.18.59-.3.89-.3.29,0,.73.13.82.32.13.31.17.93,0,1.06-1.41,1.04-2.4,2.48-3.62,3.66-1.49,1.45-3.86,1.31-5.92,1.19-.92-.05-1.84-1.71-1.85-2.79,0-.63.12-1.28-.01-1.88-.6-2.72-.32-3.13,2.51-3.12Z"/>
  <path class="cls-2" d="m94.41,69.78c1.27-2.11,2.37-4.35,3.84-6.31,5.33-7.06,11.76-13.03,18.83-18.31,2.05-1.53,4.17-2.97,6.14-4.58,2.9-2.38,6.24-3.82,9.76-4.95.95-.31,1.84-.52,2.72.11-3.61.87-6.95,2.4-9.89,4.6-5.68,4.27-11.28,8.65-16.82,13.1-4.95,3.98-9.09,8.72-12.67,13.97-.57.83-1.32,1.54-1.98,2.31,0,0,.06.06.06.06Z"/>
  <path class="cls-2" d="m157.71,177.78c-1.19.33-2.39.98-3.56.93-4.43-.19-8.75.32-13.04,1.35-.52.13-1.09.07-1.76-.31,1.15-.42,2.29-.86,3.45-1.25.68-.23,1.38-.42,2.09-.53,2.36-.35,4.24-1.27,5.07-3.72.14-.42.54-.8.9-1.1.85-.7,1.94-.63,2.16.34.59,2.53,2.3,3.41,4.8,3.44-.04.28-.07.56-.11.85Z"/>
  <path class="cls-2" d="m146.69,204.66c1.5,0,3,.03,4.51,0,1.98-.05,3.97-.06,5.95-.23,2.31-.2,4.55-.03,7.22.7-2.4,1.6-4.96.97-7.21,2.03-.7-1.2-1.66-1.17-2.94-1.12-2.5.09-5.02-.38-7.53-.62,0-.25,0-.5.01-.75Z"/>
  <path class="cls-2" d="m170.24,203.4c4.5-2.11,8,.5,11.71,1.34-3.72-.43-7.43-.85-11.71-1.34Z"/>
  <path class="cls-2" d="m214.02,353.83c4.42-.61,8.85-1.21,13.27-1.82-4.34,1.35-8.75,2.1-13.27,1.82Z"/>
  <path class="cls-2" d="m223.31,476.76c-1,1.5-3.32,2.49-6.1,2.78.83-1.3,1.34-1.53,6.1-2.78Z"/>
  <path class="cls-2" d="m151.48,220.74c1.07-.67,2.14-1.34,3.4-2.13,0,2.33-.87,2.91-3.4,2.13Z"/>
  <path class="cls-2" d="m224.12,344.87c-1.89,1.31-3.63,1.74-5.72,1.43,1.91-.48,3.81-.95,5.72-1.43Z"/>
  <path class="cls-2" d="m84.89,378.83v-7.76c.07,0,.14,0,.22,0v7.84c-.07-.02-.14-.05-.22-.07Z"/>
  <path class="cls-2" d="m91.07,74.6c1.12-1.6,2.23-3.21,3.35-4.81,0,0-.06-.06-.06-.06-.43,2.08-1.52,3.7-3.35,4.81,0,0,.06.06.06.06Z"/>
  <path class="cls-2" d="m261.02,345.15c-.73.38-1.47.76-2.2,1.13l-.3-.58,2.22-1.08c.09.18.18.36.27.53Z"/>
  <path class="cls-2" d="m62,194.67c.48.55.96,1.1,1.44,1.65-1.08.02-1.43-.68-1.84-1.33.13-.11.27-.22.4-.32Z"/>
  <path class="cls-2" d="m89.05,76.92c.67-.77,1.34-1.54,2.01-2.32,0,0-.06-.06-.06-.06-.14,1.23-.74,2.06-2,2.32l.05.06Z"/>
  <path class="cls-2" d="m260.73,41.45l-.87.42c-.06-.1-.12-.21-.19-.31.28-.2.55-.39.83-.59l.23.48Z"/>
  <path class="cls-2" d="m89.01,76.86c-.16.54-.31,1.08-.47,1.62-.15-.06-.3-.12-.46-.19.33-.46.65-.91.97-1.37,0,0-.05-.06-.05-.06Z"/>
  <path class="cls-2" d="m280.34,39.2c.33-.16.66-.32.99-.48l.21.23c-.15.17-.26.39-.45.48-.18.1-.43.07-.64.1-.04-.11-.08-.22-.12-.33Z"/>
  <path class="cls-2" d="m201.08,353.46h-1.07c0-.07-.02-.13-.03-.2.35-.04.71-.08,1.06-.12.01.1.03.21.04.31Z"/>
  <path class="cls-2" d="m266.24,194.54c.68-.49,1.36-.99,1.88-1.37.64.28,1.18.76,1.58.66,1.62-.4,3.2-.96,4.78-1.49,1.13-.38,2.24-.82,3.37-1.22,3.94-1.38,7.67-.84,11.24,1.24,1.01.59,1.99,1.25,3.35.73.55-.21,1.4.15,2.04.42,4.01,1.7,7.54,4.13,10.72,7.09,1.49,1.38,2.26,3.01,2.16,5.04-.14.06-.33.2-.41.16-2.87-1.72-5.76-3.41-8.59-5.19-3.86-2.43-7.75-4.86-12.1-6.2-3.48-1.08-7.15-1.65-10.87-.87-2.18.46-4.39.84-6.58,1.24-.77.14-1.55.23-2.32.34-.08-.19-.17-.39-.25-.58Z"/>
  <path class="cls-2" d="m303.18,167.68c1.9-1.27,4.01-.82,6.4-.89-1.59,1.4-3.69,1.71-6.4.89Z"/>
  <path class="cls-2" d="m255.68,207.77c2.11-.54,4.24-.8,6.67-.47-1.95,1.09-4.84,1.34-6.67.47Z"/>
  <path class="cls-2" d="m286.13,204.52c1.32-1.63,2.4-2.97,3.81-4.7-.22,2.77-1.1,3.81-3.81,4.7Z"/>
  <path class="cls-2" d="m266.58,163.53c.37-.33.57-.52.78-.7-.04.21-.04.44-.12.64-.02.06-.25.03-.66.07Z"/>
  <path class="cls-1" d="m107.09,234.76c-.35.54-.7,1.08-1.05,1.63-.39-1.03.04-1.52,1.05-1.63Z"/>
  <path class="cls-1" d="m147.01,184.25c3.32-1.26,6.65.07,9.97-.09.05.16.1.33.15.49-.49.24-1,.71-1.48.7-2.88-.09-5.76-.3-8.63-.47,0-.21,0-.42,0-.64Z"/>
</svg>